<?xml  version="1.0" encoding="UTF-8"?>
<!DOCTYPE svg PUBLIC "-//W3C//DTD SVG 1.0//EN" "http://www.w3.org/TR/2001/REC-SVG-20010904/DTD/svg10.dtd" >
<svg xmlns="http://www.w3.org/2000/svg" >
<metadata>
<version>1.0</version>
<id><![CDATA[PT Sans W01 Bold]]></id>
<vendor>Monotype Imaging Inc.</vendor>
<credits>
<name>Fonts.com WebFonts</name>
<URL>http://webfonts.fonts.com</URL>
<role>Home of the Web fonts</role>
</credits>
<license>
<URL>http://webfonts.fonts.com/Legal</URL>
</license>
<copyright></copyright>
<trademark></trademark>
<licensee>
<name></name>
</licensee>
</metadata>
<defs >
<font horiz-adv-x="517" id="86f64039-0079-4c99-8a17-0e9174c980cb">
<font-face font-family="" panose-1="2 11 7 3 2 2 3 2 2 4" ascent="748" descent="-252" units-per-em="1000" alphabetic="0">
</font-face>
<missing-glyph horiz-adv-x="0" />

<glyph unicode="&#xA;" />
<glyph unicode="&#xD;" />
<glyph unicode=" " horiz-adv-x="253" />
<glyph unicode="!" horiz-adv-x="294" d="M86 66Q86 101 108 121T166 142Q204 142 226 122T248 66Q248 31 226 10T166 -11Q130 -11 108 10T86 66ZM100 700H234V371L208 208H126L100 371V700Z"  />
<glyph unicode="&quot;" horiz-adv-x="402" d="M238 700H352L316 484H238V700ZM90 700H204L168 484H90V700Z"  />
<glyph unicode="#" horiz-adv-x="567" d="M289 205H200L164 51H57L93 205H19L41 302H116L141 408H69L91 505H164L199 649H305L271 505H360L395 649H501L467 505H539L514 408H444L419 302H488L464 205H396L360 51H253L289 205ZM223 302H312L337 408H248L223 302Z"  />
<glyph unicode="$" horiz-adv-x="567" d="M238 -13Q181 -11 138 -1T71 22L110 135Q128 124 160 114T238 100V305Q207 319 177 336T122 377T84 434T69 514Q69 600 114 647T238 709V800H342V713Q386 710 419 701T480 680L444 569Q427 577 401 585T342 597V410Q373 396 404 379T460 337T500 281T516 203Q516 111 470 60T342 -7V-100H238V-13ZM384 188Q384 220 360 240T299 278V100Q343 105 363 128T384 188ZM201 525Q201 495 223 475T281 438V600Q234 598 218 577T201 525Z"  />
<glyph unicode="%" horiz-adv-x="840" d="M677 714L750 648L174 -14L101 55L677 714ZM574 170Q574 84 633 84Q664 84 677 102T691 170Q691 218 678 237T633 256Q602 256 588 237T574 170ZM457 170Q457 215 470 247T506 300T562 330T633 340Q671 340 703 331T758 302T795 250T808 170Q808 123 795 91T759 38T703 9T633 0Q595 0 563 9T507 38T470 90T457 170ZM168 542Q168 456 227 456Q258 456 271 474T285 542Q285 590 272 609T227 628Q196 628 182 609T168 542ZM51 542Q51 587 64 619T100 672T156 702T227 712Q265 712 297 703T352 674T389 622T402 542Q402 495 389 463T353 410T297 381T227 372Q189 372 157 381T101 410T64 462T51 542Z"  />
<glyph unicode="&amp;" horiz-adv-x="814" d="M92 194Q92 232 104 266T139 331T193 387T260 433Q235 466 219 500T203 572Q203 597 212 622T242 668T296 701T376 714Q422 714 454 703T507 674T536 633T545 586Q545 545 516 501T417 415Q452 361 487 316T565 227Q588 252 606 289T639 366L733 316Q727 298 717 277T694 233T668 192T644 158Q676 129 700 113T749 82L680 -14Q652 -1 623 20T564 70Q528 37 474 12T341 -14Q289 -14 244 0T165 41T112 106T92 194ZM486 149Q435 202 393 254T320 354Q272 317 247 283T222 205Q222 154 259 125T358 96Q398 96 433 112T486 149ZM333 566Q333 524 369 476Q408 501 425 523T443 565Q443 589 430 603T386 617Q359 617 346 603T333 566Z"  />
<glyph unicode="&apos;" horiz-adv-x="254" d="M90 700H204L168 484H90V700Z"  />
<glyph unicode="(" horiz-adv-x="327" d="M227 -220Q181 -172 149 -115T98 3T69 125T60 243Q60 298 69 359T98 481T150 602T230 712L314 658Q279 611 256 560T218 456T197 348T190 243Q190 195 197 141T219 34T258 -71T316 -164L227 -220Z"  />
<glyph unicode=")" horiz-adv-x="327" d="M11 -164Q45 -122 69 -71T108 33T130 141T137 243Q137 294 131 348T110 455T71 560T13 658L97 712Q144 661 176 602T229 482T258 359T267 243Q267 187 258 126T230 4T178 -114T100 -220L11 -164Z"  />
<glyph unicode="*" horiz-adv-x="378" d="M144 731L172 685L187 626L202 681L230 730L294 695L264 643L216 600L281 616H338V543H283L222 559L272 512L297 470L233 433L206 479L186 543L173 485L144 436L80 473L109 522L154 559L99 543H40V617H100L159 600L108 644L80 694L144 731Z"  />
<glyph unicode="+" horiz-adv-x="527" d="M43 394H205V563H322V394H485V282H322V111H205V282H43V394Z"  />
<glyph unicode="&#x2c;" horiz-adv-x="252" d="M42 64Q42 98 64 118T120 138Q162 138 186 110T210 36Q210 -9 196 -41T162 -95T118 -129T75 -148L37 -94Q64 -83 84 -58T106 -5Q83 -8 63 9T42 64Z"  />
<glyph unicode="-" horiz-adv-x="360" d="M54 345H305V230H54V345Z"  />
<glyph unicode="." horiz-adv-x="246" d="M42 66Q42 101 64 121T122 142Q160 142 182 122T204 66Q204 31 182 10T122 -11Q86 -11 64 10T42 66Z"  />
<glyph unicode="/" horiz-adv-x="408" d="M333 712L431 668L74 -140L-24 -94L333 712Z"  />
<glyph unicode="0" horiz-adv-x="567" d="M40 351Q40 535 103 624T284 714Q410 714 469 626T528 351Q528 166 465 76T283 -14Q158 -14 99 80T40 351ZM172 351Q172 229 197 163T284 96Q343 96 369 157T396 351Q396 472 371 538T283 604Q223 604 198 542T172 351Z"  />
<glyph unicode="1" horiz-adv-x="567" d="M101 110H240V505L255 573L207 514L118 453L63 528L291 712H364V110H500V0H101V110Z"  />
<glyph unicode="2" horiz-adv-x="567" d="M475 529Q475 478 457 426T410 324T347 228T279 142L226 101V96L298 110H490V0H69V67Q93 92 123 125T183 196T243 274T295 354T331 433T345 505Q345 546 322 572T247 599Q215 599 182 586T125 551L73 643Q112 675 161 694T278 714Q321 714 357 702T419 667T460 610T475 529Z"  />
<glyph unicode="3" horiz-adv-x="567" d="M241 96Q303 96 335 129T368 209Q368 266 334 293T227 320H155V389L276 554L333 599L254 590H86V700H468V629L327 440L283 413V408L325 414Q360 411 391 398T446 361T484 300T498 217Q498 158 479 115T425 43T344 0T245 -14Q201 -14 154 -6T78 17L113 125Q139 112 170 104T241 96Z"  />
<glyph unicode="4" horiz-adv-x="567" d="M553 195H443V0H322V195H19V269L336 705H443V299H553V195ZM322 452L331 536H327L293 464L189 329L139 291L203 299H322V452Z"  />
<glyph unicode="5" horiz-adv-x="567" d="M220 101Q286 101 321 133T356 221Q356 281 315 309T198 337L119 334V700H463V578H231V443L272 447Q321 445 360 429T428 385T471 316T486 225Q486 166 466 121T411 46T327 1T222 -14Q177 -14 137 -7T68 14L103 122Q126 112 153 107T220 101Z"  />
<glyph unicode="6" horiz-adv-x="567" d="M520 217Q520 168 504 126T457 53T385 4T291 -14Q239 -14 196 2T120 52T70 135T52 251Q52 350 80 430T157 569T270 665T407 714L436 611Q386 603 344 580T270 525T215 454T183 372Q203 397 235 414T315 432Q360 432 398 418T463 377T505 309T520 217ZM394 210Q394 322 284 322Q244 322 217 304T178 262Q176 251 176 243T176 227Q176 203 183 180T203 138T238 108T288 96Q335 96 364 128T394 210Z"  />
<glyph unicode="7" horiz-adv-x="567" d="M104 0L333 539L377 588L317 578H60V700H511V662L231 0H104Z"  />
<glyph unicode="8" horiz-adv-x="567" d="M61 171Q61 206 70 233T95 283T134 324T183 357Q134 388 106 428T78 529Q78 568 92 602T134 661T201 700T289 714Q334 714 371 702T434 668T475 615T490 545Q490 486 464 445T386 370Q446 335 476 293T507 185Q507 140 491 104T444 41T372 1T280 -14Q230 -14 190 -1T121 37T77 95T61 171ZM383 184Q383 207 372 226T344 260T305 289T261 314Q214 287 197 256T179 193Q179 153 206 125T283 96Q328 96 355 118T383 184ZM202 527Q202 503 211 485T235 454T270 429T311 407Q371 458 371 519Q371 561 347 582T287 604Q243 604 223 581T202 527Z"  />
<glyph unicode="9" horiz-adv-x="567" d="M45 481Q45 532 60 575T105 648T177 696T275 714Q388 714 452 647T517 450Q517 334 488 250T409 109T294 22T157 -14L129 88Q184 95 227 115T301 164T351 231T379 312Q355 286 328 276T254 266H252Q214 266 177 279T111 319T63 386T45 481ZM171 488Q171 431 203 402T283 373Q324 373 350 386T390 418Q393 439 393 458Q393 486 386 513T365 561T328 594T274 607Q225 607 198 576T171 488Z"  />
<glyph unicode=":" horiz-adv-x="269" d="M93 66Q93 101 115 121T173 142Q211 142 233 122T255 66Q255 31 233 10T173 -11Q137 -11 115 10T93 66ZM93 428Q93 463 115 483T173 504Q211 504 233 484T255 428Q255 393 233 372T173 351Q137 351 115 372T93 428Z"  />
<glyph unicode=";" horiz-adv-x="290" d="M82 428Q82 463 104 483T162 504Q200 504 222 484T244 428Q244 393 222 372T162 351Q126 351 104 372T82 428ZM82 64Q82 98 104 118T160 138Q202 138 226 110T250 36Q250 -9 236 -41T202 -95T158 -129T115 -148L77 -94Q104 -83 124 -58T146 -5Q123 -8 103 9T82 64Z"  />
<glyph unicode="&lt;" horiz-adv-x="527" d="M40 285V355L426 586L483 496L259 357L168 322L258 291L488 154L431 64L40 285Z"  />
<glyph unicode="=" horiz-adv-x="527" d="M43 298H485V186H43V298ZM43 490H485V378H43V490Z"  />
<glyph unicode="&gt;" horiz-adv-x="527" d="M487 365V295L101 64L44 155L268 293L359 329L269 359L39 497L96 586L487 365Z"  />
<glyph unicode="?" horiz-adv-x="454" d="M116 66Q116 101 138 121T196 142Q234 142 256 122T278 66Q278 31 256 10T196 -11Q160 -11 138 10T116 66ZM136 208Q135 216 135 223T134 239Q134 283 146 315T176 370T215 411T254 446T284 482T296 527Q296 562 277 583T207 604Q191 604 173 601T137 591T103 576T73 558L23 654Q61 680 110 697T230 714Q324 714 377 669T430 546Q430 495 417 462T383 405T339 363T295 325T261 277T247 208H136Z"  />
<glyph unicode="@" horiz-adv-x="1059" d="M679 484H749L701 213Q693 166 700 145T734 124Q760 124 785 136T830 173T862 236T875 326Q875 401 850 454T782 541T679 592T552 608Q474 608 407 580T291 503T213 387T185 240Q185 162 208 100T277 -5T388 -72T541 -96Q570 -96 607 -89T674 -68L705 -164Q664 -184 622 -192T524 -200Q427 -200 345 -172T202 -89T107 47T73 236Q73 345 112 433T217 583T370 678T554 712Q646 712 725 686T862 610T953 489T986 326Q986 262 964 206T902 109T810 44T697 20Q672 20 651 25T615 44T593 78T589 130H585Q570 109 553 89T514 54T468 29T413 20Q389 20 367 30T329 60T304 106T294 166Q294 228 314 286T368 390T448 462T545 490Q580 490 604 480T648 452L679 484ZM616 363Q603 374 589 380T554 386Q524 386 499 369T455 325T426 265T416 199Q416 166 429 145T476 124Q490 124 506 132T537 155T566 187T591 225L616 363Z"  />
<glyph unicode="A" horiz-adv-x="605" d="M405 155H190L137 0H0L252 705H353L605 0H461L405 155ZM225 265H375L323 421L302 531H297L276 420L225 265Z"  />
<glyph unicode="B" horiz-adv-x="591" d="M531 537Q531 511 525 485T503 438T464 400T406 375V369Q436 364 463 352T510 319T541 268T553 197Q553 143 530 104T469 39T381 2T280 -10Q263 -10 237 -10T180 -9T118 -4T60 5V695Q79 698 103 701T156 706T213 709T272 710Q321 710 367 703T450 676T509 623T531 537ZM281 103Q306 103 329 109T371 127T400 159T411 204Q411 237 398 256T364 285T317 299T265 302H192V109Q197 107 208 106T231 105T257 104T281 103ZM236 406Q250 406 268 407T299 410Q337 422 364 446T392 509Q392 535 382 552T356 579T318 593T274 597Q248 597 226 596T192 593V406H236Z"  />
<glyph unicode="C" horiz-adv-x="559" d="M534 29Q502 6 453 -4T351 -14Q288 -14 232 5T132 68T64 181T38 350Q38 453 66 522T140 634T242 695T354 714Q414 714 455 706T524 687L497 571Q474 582 443 587T366 592Q283 592 233 533T182 350Q182 296 194 252T230 175T291 126T376 108Q421 108 452 117T506 140L534 29Z"  />
<glyph unicode="D" horiz-adv-x="647" d="M60 700Q81 703 107 705T162 708T216 709T264 710Q357 710 423 684T530 611T590 499T609 356Q609 285 591 219T531 102T421 20T251 -11Q235 -11 209 -10T154 -8T99 -5T60 -1V700ZM275 588Q253 588 231 587T197 584V115Q201 114 210 114T231 113T252 112T267 111Q325 111 363 131T424 186T456 264T465 356Q465 397 457 438T428 513T369 567T275 588Z"  />
<glyph unicode="E" horiz-adv-x="522" d="M60 700H475V578H197V415H450V293H197V122H480V0H60V700Z"  />
<glyph unicode="F" horiz-adv-x="508" d="M60 700H475V578H197V405H453V283H197V0H60V700Z"  />
<glyph unicode="G" horiz-adv-x="609" d="M307 365H568V53Q526 18 468 2T352 -14Q285 -14 228 7T128 72T62 186T38 350Q38 449 66 518T141 631T246 694T364 714Q424 714 469 705T542 686L514 571Q489 581 458 586T379 592Q336 592 300 579T238 537T197 461T182 349Q182 286 196 241T235 166T293 122T365 108Q391 108 416 114T458 134V266L307 282V365Z"  />
<glyph unicode="H" horiz-adv-x="651" d="M453 293H197V0H60V700H197V415H453V700H590V0H453V293Z"  />
<glyph unicode="I" horiz-adv-x="285" d="M74 700H211V0H74V700Z"  />
<glyph unicode="J" horiz-adv-x="334" d="M131 700H268V188Q268 148 259 112T230 49T177 5T99 -12Q70 -12 36 -6T-23 11L7 123Q33 110 66 110Q108 110 119 141T131 223V700Z"  />
<glyph unicode="K" horiz-adv-x="620" d="M233 299H197V0H60V700H197V390L229 404L422 700H578L374 406L320 368L376 329L609 0H440L233 299Z"  />
<glyph unicode="L" horiz-adv-x="514" d="M503 0H60V700H197V122H503V0Z"  />
<glyph unicode="M" horiz-adv-x="800" d="M603 363L618 502H612L569 390L420 129H376L219 391L175 502H170L190 364V0H60V700H185L372 380L405 300H409L439 382L616 700H740V0H603V363Z"  />
<glyph unicode="N" horiz-adv-x="657" d="M234 365L179 475H174L190 365V0H60V705H160L425 332L478 225H483L467 332V700H597V-5H497L234 365Z"  />
<glyph unicode="O" horiz-adv-x="670" d="M38 350Q38 525 115 619T335 714Q410 714 466 688T559 614T614 499T632 350Q632 175 555 81T335 -14Q259 -14 203 12T111 86T56 201T38 350ZM182 350Q182 297 191 253T218 176T266 126T335 108Q408 108 448 165T488 350Q488 401 480 445T453 522T406 573T335 592Q262 592 222 534T182 350Z"  />
<glyph unicode="P" horiz-adv-x="572" d="M60 693Q102 701 152 705T253 710Q305 710 357 702T452 668T520 597T547 478Q547 412 524 367T463 292T377 250T276 237Q271 237 260 237T237 237T214 239T197 241V0H60V693ZM264 592Q244 592 226 591T197 587V360Q201 359 209 358T226 357T243 356T256 356Q283 356 309 361T357 379T390 417T403 480Q403 513 391 534T360 569T315 587T264 592Z"  />
<glyph unicode="Q" horiz-adv-x="670" d="M702 -202Q654 -215 605 -215Q554 -215 506 -205T413 -182T326 -160T247 -149Q223 -149 201 -155V-37Q229 -31 259 -31Q301 -31 342 -41T427 -62T515 -84T610 -94Q632 -94 655 -92T702 -83V-202ZM38 350Q38 525 115 619T335 714Q410 714 466 688T559 614T614 499T632 350Q632 175 555 81T335 -14Q259 -14 203 12T111 86T56 201T38 350ZM182 350Q182 297 191 253T218 176T266 126T335 108Q408 108 448 165T488 350Q488 401 480 445T453 522T406 573T335 592Q262 592 222 534T182 350Z"  />
<glyph unicode="R" horiz-adv-x="602" d="M60 693Q83 697 109 700T162 706T214 709T260 710Q309 710 356 701T441 670T501 610T524 513Q524 427 484 373T377 298L426 267L586 0H428L269 274L197 287V0H60V693ZM270 588Q249 588 229 587T197 583V380H255Q312 380 346 406T380 492Q380 537 352 562T270 588Z"  />
<glyph unicode="S" horiz-adv-x="530" d="M362 188Q362 220 339 240T280 276T203 310T126 353T67 417T43 514Q43 565 60 602T108 665T183 702T279 714Q340 714 394 704T483 673L440 558Q418 572 374 583T279 595Q231 595 206 576T180 525Q180 495 203 475T262 438T339 403T416 360T475 297T499 203Q499 147 481 107T429 39T348 -1T243 -14Q168 -14 111 0T27 28L71 145Q82 139 99 132T139 119T185 109T236 105Q297 105 329 125T362 188Z"  />
<glyph unicode="T" horiz-adv-x="568" d="M557 578H353V0H216V578H11V700H557V578Z"  />
<glyph unicode="U" horiz-adv-x="627" d="M440 700H570V248Q570 180 552 131T502 50T424 3T323 -12Q57 -12 57 231V700H194V258Q194 217 201 189T225 143T265 118T321 110Q384 110 412 145T440 258V700Z"  />
<glyph unicode="V" horiz-adv-x="602" d="M290 289L308 170H313L333 290L467 700H611L351 -5H253L-9 700H150L290 289Z"  />
<glyph unicode="W" horiz-adv-x="862" d="M242 309L255 185H259L273 311L395 700H485L605 309L619 185H623L638 311L723 700H862L669 -5H577L452 384L435 491H430L413 383L289 -5H192L0 700H149L242 309Z"  />
<glyph unicode="X" horiz-adv-x="633" d="M225 356L30 700H195L303 498L327 427L350 498L463 700H612L410 363L622 0H459L336 216L309 290L283 216L159 0H10L225 356Z"  />
<glyph unicode="Y" horiz-adv-x="592" d="M228 260L-2 700H161L289 437L303 363H308L323 439L447 700H594L365 261V0H228V260Z"  />
<glyph unicode="Z" horiz-adv-x="539" d="M27 122L323 536L375 578H27V700H512V578L214 160L163 122H512V0H27V122Z"  />
<glyph unicode="[" horiz-adv-x="324" d="M60 700H295V590H184V-120H295V-230H60V700Z"  />
<glyph unicode="\" horiz-adv-x="424" d="M438 -95L339 -140L-24 668L78 711L438 -95Z"  />
<glyph unicode="]" horiz-adv-x="324" d="M264 -230H29V-120H140V590H29V700H264V-230Z"  />
<glyph unicode="^" horiz-adv-x="500" d="M216 705H285L470 413H339L268 535L247 605L222 534L144 413H20L216 705Z"  />
<glyph unicode="_" horiz-adv-x="444" d="M0 -117H444V-224H0V-117Z"  />
<glyph unicode="`" horiz-adv-x="316" d="M256 566H184L60 690V720H196L256 566Z"  />
<glyph unicode="a" horiz-adv-x="496" d="M54 471Q94 489 149 499T264 510Q316 510 351 498T406 462T435 407T444 335Q444 284 441 234T437 136Q437 99 440 65T455 -1H349L328 68H323Q303 37 268 15T176 -8Q141 -8 113 2T65 32T34 78T23 138Q23 180 40 210T91 260T171 289T276 299Q285 299 294 299T314 298Q316 308 316 316T316 332Q316 370 299 386T239 403Q200 403 157 395T85 374L54 471ZM219 99Q258 99 281 116T315 154V219Q305 220 296 220T277 221Q252 221 230 218T192 207T167 187T157 158Q157 130 173 115T219 99Z"  />
<glyph unicode="b" horiz-adv-x="536" d="M57 700H187V460H191Q212 484 245 498T318 512Q408 512 455 451T503 263Q503 128 437 58T254 -12Q190 -12 137 -2T57 22V700ZM280 402Q244 402 222 384T187 330V112Q203 104 221 101T261 98Q314 98 341 136T369 259Q369 402 280 402Z"  />
<glyph unicode="c" horiz-adv-x="433" d="M411 31Q381 9 339 -2T251 -14Q191 -14 150 5T82 58T45 142T33 250Q33 377 90 445T256 514Q311 514 344 505T405 482L374 376Q351 387 329 393T277 399Q223 399 195 364T167 250Q167 218 174 191T195 144T231 113T284 101Q317 101 340 109T381 130L411 31Z"  />
<glyph unicode="d" horiz-adv-x="539" d="M482 176Q482 134 483 92T492 -1H399L381 64H377Q357 29 320 8T231 -14Q137 -14 85 48T33 242Q33 370 91 441T261 512Q292 512 312 509T352 497V700H482V176ZM261 96Q299 96 321 114T352 168V380Q338 391 321 396T277 402Q222 402 195 365T167 238Q167 174 189 135T261 96Z"  />
<glyph unicode="e" horiz-adv-x="508" d="M457 43Q427 19 376 3T266 -14Q145 -14 89 56T33 250Q33 382 96 448T273 514Q311 514 347 504T411 471T456 409T473 312Q473 291 471 267T463 217H163Q166 154 195 122T291 90Q332 90 364 102T414 128L457 43ZM271 410Q220 410 196 380T166 298H352Q352 302 352 306T353 314Q353 360 333 385T271 410Z"  />
<glyph unicode="f" horiz-adv-x="321" d="M11 500H80V528Q80 623 120 665T236 708Q316 708 369 689L344 585Q321 593 304 595T267 598Q247 598 236 592T219 574T212 543T210 500H320V390H210V0H80V390H11V500Z"  />
<glyph unicode="g" horiz-adv-x="536" d="M480 0Q480 -109 421 -160T256 -212Q184 -212 143 -202T80 -181L107 -78Q130 -87 160 -96T236 -105Q304 -105 328 -76T353 7V39H349Q314 -8 225 -8Q128 -8 81 52T33 240Q33 374 97 443T283 512Q347 512 397 503T480 482V0ZM260 96Q298 96 318 113T350 164V389Q319 402 273 402Q223 402 195 365T167 245Q167 172 191 134T260 96Z"  />
<glyph unicode="h" horiz-adv-x="545" d="M363 0V284Q363 345 346 372T284 399Q251 399 224 377T187 319V0H57V700H187V444H191Q215 476 250 495T339 514Q377 514 406 504T454 471T483 409T493 311V0H363Z"  />
<glyph unicode="i" horiz-adv-x="269" d="M48 641Q48 670 69 690T129 711Q167 711 190 691T214 641Q214 612 191 593T129 573Q91 573 70 592T48 641ZM67 500H197V0H67V500Z"  />
<glyph unicode="j" horiz-adv-x="268" d="M50 641Q50 670 71 690T131 711Q169 711 192 691T216 641Q216 612 193 593T131 573Q93 573 72 592T50 641ZM69 500H199V-21Q199 -112 163 -160T48 -208Q18 -208 -16 -201V-92Q-12 -92 -9 -92T-3 -93Q42 -93 55 -64T69 16V500Z"  />
<glyph unicode="k" horiz-adv-x="491" d="M222 207H187V0H57V700H187V287L217 301L331 500H474L354 310L303 272L358 233L493 0H344L222 207Z"  />
<glyph unicode="l" horiz-adv-x="294" d="M191 168Q191 133 200 117T229 101Q241 101 252 103T281 112L295 10Q279 2 246 -6T178 -14Q121 -14 91 12T61 100V700H191V168Z"  />
<glyph unicode="m" horiz-adv-x="805" d="M341 0V272Q341 341 328 370T274 399Q240 399 219 381T187 333V0H57V500H158L173 434H177Q200 466 235 490T327 514Q375 514 405 495T453 429Q476 468 512 491T599 514Q641 514 670 504T718 470T746 404T755 300V0H625V281Q625 340 613 369T557 399Q522 399 502 380T471 328V0H341Z"  />
<glyph unicode="n" horiz-adv-x="545" d="M363 0V284Q363 345 346 372T286 399Q249 399 224 378T187 324V0H57V500H160L175 434H179Q202 466 240 490T338 514Q375 514 404 504T453 471T483 409T493 311V0H363Z"  />
<glyph unicode="o" horiz-adv-x="537" d="M33 250Q33 377 95 445T269 514Q329 514 373 495T446 442T489 358T504 250Q504 123 443 55T269 -14Q209 -14 165 5T92 58T48 142T33 250ZM167 250Q167 217 173 189T191 140T222 108T269 96Q320 96 345 133T370 250Q370 319 347 361T269 404Q221 404 194 368T167 250Z"  />
<glyph unicode="p" horiz-adv-x="540" d="M57 500H152L167 440H171Q197 478 232 496T319 514Q413 514 460 455T507 263Q507 199 492 148T448 60T376 5T278 -14Q247 -14 227 -10T187 5V-200H57V500ZM280 404Q242 404 221 385T187 328V120Q201 109 217 103T261 96Q317 96 345 135T373 266Q373 332 351 368T280 404Z"  />
<glyph unicode="q" horiz-adv-x="536" d="M480 -200H350V43H346Q329 17 300 2T225 -14Q132 -14 83 49T33 240Q33 374 100 443T294 512Q321 512 348 510T399 503T445 493T480 482V-200ZM260 96Q298 96 318 113T350 164V389Q335 397 316 399T273 402Q220 402 194 362T167 245Q167 172 191 134T260 96Z"  />
<glyph unicode="r" horiz-adv-x="351" d="M333 378Q302 389 277 389Q242 389 219 371T187 323V0H57V500H158L173 434H177Q194 471 223 491T291 511Q317 511 350 500L333 378Z"  />
<glyph unicode="s" horiz-adv-x="422" d="M264 138Q264 158 247 170T205 192T150 212T95 241T53 288T36 362Q36 436 80 475T207 514Q264 514 310 502T382 475L353 381Q330 390 295 400T224 410Q166 410 166 365Q166 347 183 336T225 316T280 295T335 267T377 221T394 149Q394 73 346 30T200 -14Q147 -14 101 -1T25 31L61 128Q84 115 122 103T200 90Q229 90 246 101T264 138Z"  />
<glyph unicode="t" horiz-adv-x="349" d="M5 500H74V594L204 631V500H326V390H204V198Q204 146 214 124T254 101Q274 101 288 105T321 117L344 17Q317 4 281 -5T208 -14Q139 -14 107 21T74 138V390H5V500Z"  />
<glyph unicode="u" horiz-adv-x="538" d="M182 500V216Q182 155 196 128T253 101Q290 101 314 123T351 177V500H481V152Q481 111 485 72T497 0H399L376 74H372Q349 36 308 11T211 -14Q173 -14 143 -4T93 29T63 91T52 189V500H182Z"  />
<glyph unicode="v" horiz-adv-x="477" d="M230 238L247 161H252L266 240L351 500H491L282 -5H203L-14 500H137L230 238Z"  />
<glyph unicode="w" horiz-adv-x="721" d="M419 500L510 244L528 161H532L546 245L610 500H729L575 -5H479L378 275L365 338H360L348 274L252 -5H153L-8 500H133L206 249L218 160H223L240 250L323 500H419Z"  />
<glyph unicode="x" horiz-adv-x="525" d="M170 256L20 500H175L240 393L268 323L298 393L366 500H507L356 260L517 0H366L289 120L259 194L227 120L150 0H8L170 256Z"  />
<glyph unicode="y" horiz-adv-x="478" d="M239 219L257 141H263L276 220L352 500H486L334 49Q315 -7 298 -53T259 -134T213 -186T152 -205Q100 -205 69 -188L93 -84Q108 -90 123 -90Q146 -90 167 -71T200 0L-9 500H147L239 219Z"  />
<glyph unicode="z" horiz-adv-x="458" d="M31 110L228 347L279 390H31V500H423V390L228 149L178 110H423V0H31V110Z"  />
<glyph unicode="{" horiz-adv-x="371" d="M123 96Q123 147 102 166T43 185V285Q81 285 102 305T123 370V579Q123 633 148 667T230 701H350V591H300Q273 591 261 577T248 531V336Q248 292 227 270T178 242V232Q205 228 226 202T248 134V-60Q248 -92 260 -106T301 -120H350V-230H230Q178 -230 151 -199T123 -109V96Z"  />
<glyph unicode="|" horiz-adv-x="227" d="M60 700H167V-130H60V700Z"  />
<glyph unicode="}" horiz-adv-x="371" d="M261 375Q261 324 282 305T341 286V186Q303 186 282 166T261 101V-108Q261 -162 235 -196T152 -230H35V-120H85Q112 -120 124 -107T137 -60V135Q137 179 158 201T207 229V239Q180 243 159 269T137 337V531Q137 562 125 576T84 591H35V701H154Q207 701 234 670T261 580V375Z"  />
<glyph unicode="~" horiz-adv-x="527" d="M28 378Q75 416 112 430T182 445Q211 445 236 437T284 419T329 401T375 392Q393 392 412 398T452 421L499 318Q463 291 433 280T377 269Q349 269 325 278T279 298T233 318T184 327Q160 327 133 317T72 278L28 378Z"  />
<glyph unicode="&#xA0;" horiz-adv-x="253" />
<glyph unicode="&#xA1;" horiz-adv-x="293" d="M44 435Q44 470 66 490T124 511Q162 511 184 491T206 435Q206 400 184 379T124 358Q88 358 66 379T44 435ZM191 -200H57V129L83 291H165L191 129V-200Z"  />
<glyph unicode="&#xA2;" horiz-adv-x="567" d="M489 31Q472 18 447 9T392 -6V-100H271V-11Q220 -4 185 17T127 72T94 151T84 250Q84 362 132 428T271 510V600H392V510Q420 506 442 500T482 484L452 378Q437 385 420 389T385 395V104Q408 107 426 114T459 129L489 31ZM212 250Q212 199 231 161T295 108V394Q253 383 233 349T212 250Z"  />
<glyph unicode="&#xA3;" horiz-adv-x="567" d="M51 394H119Q106 418 97 448T87 520Q87 569 103 605T149 666T220 702T310 714Q371 714 421 703T507 674L465 558Q445 569 410 580T326 592Q278 592 251 570T224 502Q224 468 236 444T264 394H405V287H307Q310 270 310 253Q310 223 300 190T269 136L226 104V100L293 115H523V0H51V115Q83 116 107 126T146 152T170 191T178 237Q178 264 172 287H51V394Z"  />
<glyph unicode="&#xA4;" horiz-adv-x="567" d="M81 622L159 545L178 508Q198 523 225 530T283 538Q312 538 340 531T388 509L408 545L486 622L563 542L486 464L449 448Q463 427 469 401T475 345Q475 315 469 289T449 244L486 228L563 150L486 70L408 147L390 184Q371 170 342 162T283 154Q253 154 226 161T178 183L159 147L81 70L5 150L82 228L118 245Q106 266 99 290T92 345Q92 374 99 399T120 447L82 464L5 542L81 622ZM201 346Q201 308 224 284T284 260Q321 260 343 284T366 346Q366 382 344 407T284 432Q247 432 224 407T201 346Z"  />
<glyph unicode="&#xA5;" horiz-adv-x="567" d="M85 337H175L-14 700H149L277 437L291 363H296L311 439L435 700H582L392 337H483V257H353V199H483V119H353V0H216V119H85V199H216V257H85V337Z"  />
<glyph unicode="&#xA6;" horiz-adv-x="227" d="M167 357H60V700H167V357ZM60 213H167V-130H60V213Z"  />
<glyph unicode="&#xA7;" horiz-adv-x="530" d="M49 353Q49 384 64 413T105 466L146 480Q120 496 103 520T86 586Q86 642 129 678T261 714Q320 714 371 704T449 681L417 576Q394 587 356 595T283 604Q246 604 231 593T216 565Q216 546 235 537T284 519T348 501T412 473T461 426T481 347Q481 316 467 287T426 235L381 221Q408 205 426 180T444 114Q444 51 395 19T265 -14Q197 -14 152 -1T77 29L111 129Q134 118 167 107T244 96Q281 96 297 105T314 136Q314 155 295 165T246 184T182 203T118 230T69 277T49 353ZM351 345Q351 363 343 375T318 396T279 414T227 431Q207 419 193 400T179 355Q179 320 211 303T299 270Q321 282 336 302T351 345Z"  />
<glyph unicode="&#xA8;" horiz-adv-x="479" d="M279 651Q279 683 297 702T348 721Q380 721 399 702T419 651Q419 621 400 602T348 583Q316 583 298 602T279 651ZM60 651Q60 683 79 702T131 721Q163 721 181 702T200 651Q200 621 182 602T131 583Q99 583 80 602T60 651Z"  />
<glyph unicode="&#xA9;" horiz-adv-x="833" d="M541 131Q519 117 486 109T414 100Q333 100 291 151T248 290Q248 381 293 430T414 480Q451 480 479 472T534 448L502 361Q484 370 470 373T441 376Q412 376 395 357T378 290Q378 204 448 204Q467 204 482 207T512 219L541 131ZM153 290Q153 228 172 178T227 94T311 41T416 22Q473 22 521 40T605 93T660 178T680 290Q680 352 661 402T606 486T522 539T416 558Q359 558 311 540T228 487T173 402T153 290ZM55 290Q55 373 83 439T159 553T274 625T416 651Q492 651 557 626T672 553T749 440T777 290Q777 207 749 141T672 27T558 -45T416 -71Q333 -71 266 -46T152 27T80 140T55 290Z"  />
<glyph unicode="&#xAA;" horiz-adv-x="420" d="M61 674Q87 688 134 698T241 708Q317 708 345 681T373 596Q373 562 372 530T370 466Q370 442 371 421T378 380H277L264 426H260Q247 409 223 393T156 376Q104 376 73 403T42 475Q42 506 57 527T97 561T157 580T232 586Q239 586 245 586T259 585Q261 611 252 622T208 634Q167 634 135 626T83 610L61 674ZM194 454Q226 454 239 465T259 489V524Q250 525 241 525T224 526Q194 526 176 518T157 488Q157 472 167 463T194 454Z"  />
<glyph unicode="&#xAB;" horiz-adv-x="488" d="M29 259L189 489L268 427L181 301L133 260L181 224L274 100L195 38L29 259ZM223 261L377 477L448 421L367 299L321 260L367 225L454 104L383 48L223 261Z"  />
<glyph unicode="&#xAC;" horiz-adv-x="527" d="M45 412H487V186H367V300H45V412Z"  />
<glyph unicode="&#xAD;" horiz-adv-x="360" d="M49 345H311V230H49V345Z"  />
<glyph unicode="&#xAE;" horiz-adv-x="690" d="M62 451Q62 518 84 570T146 659T236 714T345 733Q404 733 455 714T545 659T605 571T627 451Q627 383 605 331T544 242T454 188T345 169Q286 169 235 187T145 242T84 330T62 451ZM156 451Q156 403 171 367T213 306T273 270T345 258Q385 258 419 269T479 305T518 365T533 451Q533 499 518 535T478 595T418 631T345 643Q303 643 268 630T208 592T170 532T156 451ZM242 581Q258 586 287 588T342 591Q384 591 414 574T444 513Q444 481 424 464T373 445L401 431L466 322H405L342 426L294 441V322H242V581ZM331 546Q320 546 310 546T294 542V471H328Q357 471 373 480T389 511Q389 546 331 546Z"  />
<glyph unicode="&#xAF;" horiz-adv-x="443" d="M60 658H383V566H60V658Z"  />
<glyph unicode="&#xB0;" horiz-adv-x="437" d="M60 548Q60 585 73 615T108 668T160 702T224 714Q258 714 288 703T342 671T378 618T391 548Q391 509 378 479T342 427T289 395T224 384Q190 384 161 395T109 427T73 478T60 548ZM160 548Q160 516 179 498T225 479Q252 479 272 497T292 548Q292 580 272 599T225 619Q198 619 179 600T160 548Z"  />
<glyph unicode="&#xB1;" horiz-adv-x="527" d="M43 253H485V141H43V253ZM43 518H205V682H322V518H485V406H322V299H205V406H43V518Z"  />
<glyph unicode="&#xB2;" horiz-adv-x="412" d="M348 680Q348 621 318 579T246 499L199 474V470L257 481H364V380H51V451Q77 469 109 493T168 544T214 601T233 656Q233 705 176 705Q150 705 126 697T84 677L50 767Q84 788 124 797T200 807Q271 807 309 775T348 680Z"  />
<glyph unicode="&#xB3;" horiz-adv-x="412" d="M169 468Q214 468 232 482T251 519Q251 542 232 555T161 568H119V606L192 686L235 711L177 705H62V800H345V738L258 646L224 628V623L254 626Q306 624 336 595T366 511Q366 475 352 449T313 406T255 381T186 373Q147 373 114 379T56 397L80 487Q121 468 169 468Z"  />
<glyph unicode="&#xB4;" horiz-adv-x="305" d="M113 720H245V690L134 566H60L113 720Z"  />
<glyph unicode="&#xB5;" horiz-adv-x="569" d="M182 500V227Q182 163 202 131T274 98Q320 98 348 121T388 185V500H518V163Q518 122 520 81T533 0H437L405 74H401Q384 39 351 14T265 -12Q226 -12 205 2T166 38H161L182 -67V-200H52V500H182Z"  />
<glyph unicode="&#xB6;" horiz-adv-x="529" d="M178 294Q145 294 117 310T69 355T37 420T26 498Q26 538 39 574T76 639T134 683T210 700H284V-130H178V294ZM362 700H469V-130H362V700Z"  />
<glyph unicode="&#xB7;" horiz-adv-x="253" d="M45 316Q45 351 67 371T125 392Q163 392 185 372T207 316Q207 281 185 260T125 239Q89 239 67 260T45 316Z"  />
<glyph unicode="&#xB8;" horiz-adv-x="332" d="M208 0L184 -43Q225 -47 248 -64T272 -118Q272 -141 261 -158T229 -186T182 -204T124 -210Q93 -210 60 -204L69 -156Q76 -157 82 -157T93 -157Q131 -157 142 -148T153 -127Q153 -99 67 -95L124 0H208Z"  />
<glyph unicode="&#xB9;" horiz-adv-x="412" d="M72 480H169V644L179 690L149 658L90 619L41 696L199 807H284V480H372V380H72V480Z"  />
<glyph unicode="&#xBA;" horiz-adv-x="419" d="M34 542Q34 587 47 619T83 672T139 702T210 712Q248 712 280 703T335 674T372 622T385 542Q385 495 372 463T336 410T280 381T210 372Q172 372 140 381T84 410T47 462T34 542ZM151 542Q151 456 210 456Q241 456 254 474T268 542Q268 590 255 609T210 628Q179 628 165 609T151 542Z"  />
<glyph unicode="&#xBB;" horiz-adv-x="488" d="M459 268L299 38L220 100L307 226L355 267L307 303L214 427L293 489L459 268ZM264 266L111 50L39 106L121 228L166 267L121 302L34 423L104 479L264 266Z"  />
<glyph unicode="&#xBC;" horiz-adv-x="880" d="M164 544L174 590L144 558L85 519L36 596L194 707H279V280H164V544ZM656 253L662 306H657L635 257L586 191L551 159L603 167H656V253ZM833 78H757V0H656V78H449V145L667 428H757V167H833V78ZM609 715L694 665L264 -14L178 39L609 715Z"  />
<glyph unicode="&#xBD;" horiz-adv-x="903" d="M164 544L174 590L144 558L85 519L36 596L194 707H279V280H164V544ZM841 300Q841 241 811 199T739 119L692 94V90L750 101H857V0H544V71Q570 89 602 113T661 164T707 221T726 276Q726 325 669 325Q643 325 619 317T577 297L543 387Q577 408 617 417T693 427Q764 427 802 395T841 300ZM609 715L694 665L264 -14L178 39L609 715Z"  />
<glyph unicode="&#xBE;" horiz-adv-x="905" d="M160 368Q205 368 223 382T242 419Q242 442 223 455T152 468H110V506L183 586L226 611L168 605H53V700H336V638L249 546L215 528V523L245 526Q297 524 327 495T357 411Q357 375 343 349T304 306T246 281T177 273Q138 273 105 279T47 297L71 387Q112 368 160 368ZM681 253L687 306H682L660 257L611 191L576 159L628 167H681V253ZM858 78H782V0H681V78H474V145L692 428H782V167H858V78ZM634 715L719 665L289 -14L203 39L634 715Z"  />
<glyph unicode="&#xBF;" horiz-adv-x="454" d="M178 435Q178 470 200 490T258 511Q296 511 318 491T340 435Q340 400 318 379T258 358Q222 358 200 379T178 435ZM317 293Q318 285 318 277T319 260Q319 216 307 185T277 130T238 90T199 55T169 20T157 -25Q157 -60 177 -81T247 -102Q263 -102 281 -99T317 -89T351 -74T381 -55L430 -152Q392 -178 343 -195T224 -212Q130 -212 77 -167T23 -44Q23 7 36 40T70 96T114 138T158 176T192 224T206 293H317Z"  />
<glyph unicode="&#xC0;" horiz-adv-x="605" d="M399 752H294L136 840V870H295L399 752ZM225 265H375L323 421L302 531H297L276 420L225 265ZM405 155H190L137 0H0L252 705H353L605 0H461L405 155Z"  />
<glyph unicode="&#xC1;" horiz-adv-x="605" d="M309 870H468V840L308 752H205L309 870ZM225 265H375L323 421L302 531H297L276 420L225 265ZM405 155H190L137 0H0L252 705H353L605 0H461L405 155Z"  />
<glyph unicode="&#xC2;" horiz-adv-x="605" d="M257 870H353L480 777V738H381L324 779L304 813L283 780L221 738H124V778L257 870ZM225 265H375L323 421L302 531H297L276 420L225 265ZM405 155H190L137 0H0L252 705H353L605 0H461L405 155Z"  />
<glyph unicode="&#xC3;" horiz-adv-x="605" d="M113 800Q145 835 174 848T233 861Q255 861 277 856T319 844T360 832T398 826Q414 826 429 831T458 850L483 783Q455 757 429 747T377 736Q354 736 333 741T292 754T251 766T212 772Q193 772 175 765T137 737L113 800ZM225 265H375L323 421L302 531H297L276 420L225 265ZM405 155H190L137 0H0L252 705H353L605 0H461L405 155Z"  />
<glyph unicode="&#xC4;" horiz-adv-x="605" d="M338 798Q338 824 356 840T413 856Q453 856 471 840T489 798Q489 772 471 757T413 741Q374 741 356 756T338 798ZM124 798Q124 824 142 840T200 856Q239 856 257 840T275 798Q275 772 257 757T200 741Q160 741 142 756T124 798ZM225 265H375L323 421L302 531H297L276 420L225 265ZM405 155H190L137 0H0L252 705H353L605 0H461L405 155Z"  />
<glyph unicode="&#xC5;" horiz-adv-x="605" d="M175 771Q175 789 181 805T201 834T240 854T303 861Q373 861 402 837T431 771Q431 742 415 721T358 689L605 0H461L405 155H190L137 0H0L246 689Q207 698 191 720T175 771ZM225 265H375L323 421L302 531H297L276 420L225 265ZM259 771Q259 740 303 740Q328 740 338 748T348 771Q348 788 338 796T303 804Q259 804 259 771Z"  />
<glyph unicode="&#xC6;" horiz-adv-x="862" d="M394 532L358 429L274 280H400V532H394ZM400 170H214L115 0H-29L395 700H814V578H537V415H789V293H537V122H819V0H400V170Z"  />
<glyph unicode="&#xC7;" horiz-adv-x="559" d="M534 29Q508 10 469 0T385 -13L369 -43Q410 -47 433 -64T457 -118Q457 -141 446 -158T414 -186T367 -204T309 -210Q278 -210 245 -204L254 -156Q261 -157 267 -157T278 -157Q316 -157 327 -148T338 -127Q338 -99 252 -95L302 -11Q247 -4 199 19T115 87T59 196T38 350Q38 453 66 522T140 634T242 695T354 714Q414 714 455 706T524 687L497 571Q474 582 443 587T366 592Q283 592 233 533T182 350Q182 296 194 252T230 176T291 127T376 109Q421 109 452 118T506 141L534 29Z"  />
<glyph unicode="&#xC8;" horiz-adv-x="522" d="M352 752H247L89 840V870H248L352 752ZM60 700H475V578H197V415H450V293H197V122H480V0H60V700Z"  />
<glyph unicode="&#xC9;" horiz-adv-x="522" d="M293 870H452V840L292 752H189L293 870ZM60 700H475V578H197V415H450V293H197V122H480V0H60V700Z"  />
<glyph unicode="&#xCA;" horiz-adv-x="522" d="M219 870H315L442 777V738H343L286 779L266 813L245 780L183 738H86V778L219 870ZM60 700H475V578H197V415H450V293H197V122H480V0H60V700Z"  />
<glyph unicode="&#xCB;" horiz-adv-x="522" d="M298 798Q298 824 316 840T373 856Q413 856 431 840T449 798Q449 772 431 757T373 741Q334 741 316 756T298 798ZM84 798Q84 824 102 840T160 856Q199 856 217 840T235 798Q235 772 217 757T160 741Q120 741 102 756T84 798ZM60 700H475V578H197V415H450V293H197V122H480V0H60V700Z"  />
<glyph unicode="&#xCC;" horiz-adv-x="285" d="M240 752H135L-23 840V870H136L240 752ZM74 700H211V0H74V700Z"  />
<glyph unicode="&#xCD;" horiz-adv-x="285" d="M152 870H311V840L151 752H48L152 870ZM74 700H211V0H74V700Z"  />
<glyph unicode="&#xCE;" horiz-adv-x="285" d="M96 870H192L319 777V738H220L163 779L143 813L122 780L60 738H-37V778L96 870ZM74 700H211V0H74V700Z"  />
<glyph unicode="&#xCF;" horiz-adv-x="285" d="M175 798Q175 824 193 840T250 856Q290 856 308 840T326 798Q326 772 308 757T250 741Q211 741 193 756T175 798ZM-39 798Q-39 824 -21 840T37 856Q76 856 94 840T112 798Q112 772 94 757T37 741Q-3 741 -21 756T-39 798ZM74 700H211V0H74V700Z"  />
<glyph unicode="&#xD0;" horiz-adv-x="669" d="M-6 401H82V700Q103 703 129 705T184 708T238 709T286 710Q379 710 445 684T552 611T612 499T631 356Q631 285 613 219T553 102T443 20T273 -11Q257 -11 231 -10T176 -8T121 -5T82 -1V321H-6V401ZM219 401H359V321H219V114Q223 113 232 113T253 112T274 111T289 111Q347 111 385 131T446 186T478 264T487 356Q487 397 479 438T450 513T391 567T297 588Q275 588 253 587T219 584V401Z"  />
<glyph unicode="&#xD1;" horiz-adv-x="657" d="M138 800Q170 835 199 848T258 861Q280 861 302 856T344 844T385 832T423 826Q439 826 454 831T483 850L508 783Q480 757 454 747T402 736Q379 736 358 741T317 754T276 766T237 772Q218 772 200 765T162 737L138 800ZM234 365L179 475H174L190 365V0H60V705H160L425 332L478 225H483L467 332V700H597V-5H497L234 365Z"  />
<glyph unicode="&#xD2;" horiz-adv-x="670" d="M412 752H307L149 840V870H308L412 752ZM182 350Q182 297 191 253T218 176T266 126T335 108Q408 108 448 165T488 350Q488 401 480 445T453 522T406 573T335 592Q262 592 222 534T182 350ZM38 350Q38 525 115 619T335 714Q410 714 466 688T559 614T614 499T632 350Q632 175 555 81T335 -14Q259 -14 203 12T111 86T56 201T38 350Z"  />
<glyph unicode="&#xD3;" horiz-adv-x="670" d="M368 870H527V840L367 752H264L368 870ZM182 350Q182 297 191 253T218 176T266 126T335 108Q408 108 448 165T488 350Q488 401 480 445T453 522T406 573T335 592Q262 592 222 534T182 350ZM38 350Q38 525 115 619T335 714Q410 714 466 688T559 614T614 499T632 350Q632 175 555 81T335 -14Q259 -14 203 12T111 86T56 201T38 350Z"  />
<glyph unicode="&#xD4;" horiz-adv-x="670" d="M287 870H383L510 777V738H411L354 779L334 813L313 780L251 738H154V778L287 870ZM182 350Q182 297 191 253T218 176T266 126T335 108Q408 108 448 165T488 350Q488 401 480 445T453 522T406 573T335 592Q262 592 222 534T182 350ZM38 350Q38 525 115 619T335 714Q410 714 466 688T559 614T614 499T632 350Q632 175 555 81T335 -14Q259 -14 203 12T111 86T56 201T38 350Z"  />
<glyph unicode="&#xD5;" horiz-adv-x="670" d="M144 800Q176 835 205 848T264 861Q286 861 308 856T350 844T391 832T429 826Q445 826 460 831T489 850L514 783Q486 757 460 747T408 736Q385 736 364 741T323 754T282 766T243 772Q224 772 206 765T168 737L144 800ZM182 350Q182 297 191 253T218 176T266 126T335 108Q408 108 448 165T488 350Q488 401 480 445T453 522T406 573T335 592Q262 592 222 534T182 350ZM38 350Q38 525 115 619T335 714Q410 714 466 688T559 614T614 499T632 350Q632 175 555 81T335 -14Q259 -14 203 12T111 86T56 201T38 350Z"  />
<glyph unicode="&#xD6;" horiz-adv-x="670" d="M364 798Q364 824 382 840T439 856Q479 856 497 840T515 798Q515 772 497 757T439 741Q400 741 382 756T364 798ZM150 798Q150 824 168 840T226 856Q265 856 283 840T301 798Q301 772 283 757T226 741Q186 741 168 756T150 798ZM182 350Q182 297 191 253T218 176T266 126T335 108Q408 108 448 165T488 350Q488 401 480 445T453 522T406 573T335 592Q262 592 222 534T182 350ZM38 350Q38 525 115 619T335 714Q410 714 466 688T559 614T614 499T632 350Q632 175 555 81T335 -14Q259 -14 203 12T111 86T56 201T38 350Z"  />
<glyph unicode="&#xD7;" horiz-adv-x="527" d="M134 547L265 417L395 547L474 466L344 339L474 210L395 128L265 259L133 127L54 208L185 339L56 466L134 547Z"  />
<glyph unicode="&#xD8;" horiz-adv-x="670" d="M111 86Q74 134 56 200T38 350Q38 525 115 619T335 714Q380 714 418 704T487 676L512 715L597 665L562 609Q597 561 614 496T632 350Q632 175 555 81T335 -14Q291 -14 255 -6T188 19L167 -14L81 39L111 86ZM182 350Q182 314 186 282T198 223L417 565Q382 592 335 592Q262 592 222 534T182 350ZM488 350Q488 383 485 413T474 470L259 130Q292 108 335 108Q408 108 448 165T488 350Z"  />
<glyph unicode="&#xD9;" horiz-adv-x="627" d="M395 752H290L132 840V870H291L395 752ZM440 700H570V248Q570 180 552 131T502 50T424 3T323 -12Q57 -12 57 231V700H194V258Q194 217 201 189T225 143T265 118T321 110Q384 110 412 145T440 258V700Z"  />
<glyph unicode="&#xDA;" horiz-adv-x="627" d="M365 870H524V840L364 752H261L365 870ZM440 700H570V248Q570 180 552 131T502 50T424 3T323 -12Q57 -12 57 231V700H194V258Q194 217 201 189T225 143T265 118T321 110Q384 110 412 145T440 258V700Z"  />
<glyph unicode="&#xDB;" horiz-adv-x="627" d="M273 870H369L496 777V738H397L340 779L320 813L299 780L237 738H140V778L273 870ZM440 700H570V248Q570 180 552 131T502 50T424 3T323 -12Q57 -12 57 231V700H194V258Q194 217 201 189T225 143T265 118T321 110Q384 110 412 145T440 258V700Z"  />
<glyph unicode="&#xDC;" horiz-adv-x="627" d="M347 798Q347 824 365 840T422 856Q462 856 480 840T498 798Q498 772 480 757T422 741Q383 741 365 756T347 798ZM133 798Q133 824 151 840T209 856Q248 856 266 840T284 798Q284 772 266 757T209 741Q169 741 151 756T133 798ZM440 700H570V248Q570 180 552 131T502 50T424 3T323 -12Q57 -12 57 231V700H194V258Q194 217 201 189T225 143T265 118T321 110Q384 110 412 145T440 258V700Z"  />
<glyph unicode="&#xDD;" horiz-adv-x="592" d="M326 870H485V840L325 752H222L326 870ZM228 260L-2 700H161L289 437L303 363H308L323 439L447 700H594L365 261V0H228V260Z"  />
<glyph unicode="&#xDE;" horiz-adv-x="572" d="M60 700H197V628Q211 629 225 629T253 630Q305 630 357 622T452 588T520 517T547 398Q547 332 524 287T463 212T377 170T276 157Q271 157 260 157T237 157T214 159T197 161V0H60V700ZM197 280Q201 279 209 278T226 277T243 276T256 276Q283 276 309 281T357 299T390 337T403 400Q403 433 391 454T360 489T315 507T264 512Q244 512 226 511T197 507V280Z"  />
<glyph unicode="&#xDF;" horiz-adv-x="630" d="M386 537Q386 550 379 561T360 580T333 593T303 598Q255 598 233 575T211 488V0H81V390H12V500H81Q81 558 97 597T141 661T209 697T296 708Q347 708 387 697T456 664T500 614T516 548Q516 509 499 485T460 444T421 412T403 375Q403 357 417 346T454 326T502 306T550 278T587 235T602 167Q602 132 591 100T557 42T498 1T414 -14Q367 -14 328 -3T260 26L295 123Q318 110 341 100T403 90Q433 90 452 110T472 160Q472 181 458 194T421 217T373 238T325 263T288 302T273 361Q273 404 290 428T329 468T368 499T386 537Z"  />
<glyph unicode="&#xE0;" horiz-adv-x="496" d="M311 566H239L115 690V720H251L311 566ZM219 99Q258 99 281 116T315 154V219Q305 220 296 220T277 221Q252 221 230 218T192 207T167 187T157 158Q157 130 173 115T219 99ZM54 471Q94 489 149 499T264 510Q316 510 351 498T406 462T435 407T444 335Q444 284 441 234T437 136Q437 99 440 65T455 -1H349L328 68H323Q303 37 268 15T176 -8Q141 -8 113 2T65 32T34 78T23 138Q23 180 40 210T91 260T171 289T276 299Q285 299 294 299T314 298Q316 308 316 316T316 332Q316 370 299 386T239 403Q200 403 157 395T85 374L54 471Z"  />
<glyph unicode="&#xE1;" horiz-adv-x="496" d="M237 720H369V690L258 566H184L237 720ZM219 99Q258 99 281 116T315 154V219Q305 220 296 220T277 221Q252 221 230 218T192 207T167 187T157 158Q157 130 173 115T219 99ZM54 471Q94 489 149 499T264 510Q316 510 351 498T406 462T435 407T444 335Q444 284 441 234T437 136Q437 99 440 65T455 -1H349L328 68H323Q303 37 268 15T176 -8Q141 -8 113 2T65 32T34 78T23 138Q23 180 40 210T91 260T171 289T276 299Q285 299 294 299T314 298Q316 308 316 316T316 332Q316 370 299 386T239 403Q200 403 157 395T85 374L54 471Z"  />
<glyph unicode="&#xE2;" horiz-adv-x="496" d="M216 732H302L413 550H310L271 616L254 665L237 616L192 550H93L216 732ZM219 99Q258 99 281 116T315 154V219Q305 220 296 220T277 221Q252 221 230 218T192 207T167 187T157 158Q157 130 173 115T219 99ZM54 471Q94 489 149 499T264 510Q316 510 351 498T406 462T435 407T444 335Q444 284 441 234T437 136Q437 99 440 65T455 -1H349L328 68H323Q303 37 268 15T176 -8Q141 -8 113 2T65 32T34 78T23 138Q23 180 40 210T91 260T171 289T276 299Q285 299 294 299T314 298Q316 308 316 316T316 332Q316 370 299 386T239 403Q200 403 157 395T85 374L54 471Z"  />
<glyph unicode="&#xE3;" horiz-adv-x="496" d="M86 658Q117 695 143 709T194 723Q214 723 232 716T269 701T304 686T339 679Q353 679 367 685T398 706L418 636Q389 604 365 592T317 580Q297 580 278 586T241 601T205 615T169 622Q154 622 138 616T105 593L86 658ZM219 99Q258 99 281 116T315 154V219Q305 220 296 220T277 221Q252 221 230 218T192 207T167 187T157 158Q157 130 173 115T219 99ZM54 471Q94 489 149 499T264 510Q316 510 351 498T406 462T435 407T444 335Q444 284 441 234T437 136Q437 99 440 65T455 -1H349L328 68H323Q303 37 268 15T176 -8Q141 -8 113 2T65 32T34 78T23 138Q23 180 40 210T91 260T171 289T276 299Q285 299 294 299T314 298Q316 308 316 316T316 332Q316 370 299 386T239 403Q200 403 157 395T85 374L54 471Z"  />
<glyph unicode="&#xE4;" horiz-adv-x="496" d="M294 651Q294 683 312 702T363 721Q395 721 414 702T434 651Q434 621 415 602T363 583Q331 583 313 602T294 651ZM75 651Q75 683 94 702T146 721Q178 721 196 702T215 651Q215 621 197 602T146 583Q114 583 95 602T75 651ZM219 99Q258 99 281 116T315 154V219Q305 220 296 220T277 221Q252 221 230 218T192 207T167 187T157 158Q157 130 173 115T219 99ZM54 471Q94 489 149 499T264 510Q316 510 351 498T406 462T435 407T444 335Q444 284 441 234T437 136Q437 99 440 65T455 -1H349L328 68H323Q303 37 268 15T176 -8Q141 -8 113 2T65 32T34 78T23 138Q23 180 40 210T91 260T171 289T276 299Q285 299 294 299T314 298Q316 308 316 316T316 332Q316 370 299 386T239 403Q200 403 157 395T85 374L54 471Z"  />
<glyph unicode="&#xE5;" horiz-adv-x="496" d="M54 471Q94 489 149 499T264 510Q316 510 351 498T406 462T435 407T444 335Q444 284 441 234T437 136Q437 99 440 65T455 -1H349L328 68H323Q303 37 268 15T176 -8Q141 -8 113 2T65 32T34 78T23 138Q23 180 40 210T91 260T171 289T276 299Q285 299 294 299T314 298Q316 308 316 316T316 332Q316 370 299 386T239 403Q200 403 157 395T85 374L54 471ZM219 99Q258 99 281 116T315 154V219Q305 220 296 220T277 221Q252 221 230 218T192 207T167 187T157 158Q157 130 173 115T219 99ZM144 647Q144 689 172 716T255 743Q306 743 336 719T366 647Q366 608 337 581T255 553Q202 553 173 578T144 647ZM216 647Q216 631 228 623T255 614Q272 614 283 622T294 647Q294 664 283 672T255 681Q240 681 228 673T216 647Z"  />
<glyph unicode="&#xE6;" horiz-adv-x="785" d="M219 99Q258 99 281 116T315 154V219Q284 222 256 220T205 211T170 191T157 158Q157 130 173 115T219 99ZM350 76Q323 42 284 17T176 -8Q141 -8 113 2T65 32T34 78T23 138Q23 184 43 215T102 266T193 293T313 298Q315 308 315 316T315 333Q315 370 299 386T239 403Q200 403 160 393T88 367L54 461Q92 481 148 495T264 510Q316 510 347 497T398 456Q423 484 463 499T550 514Q588 514 624 504T688 471T733 409T750 312Q750 291 748 268T740 217H439Q443 154 472 122T568 90Q609 90 641 102T691 128L734 43Q704 19 653 3T543 -14Q479 -14 431 9T355 76H350ZM548 410Q497 410 473 380T443 298H630Q633 352 613 381T548 410Z"  />
<glyph unicode="&#xE7;" horiz-adv-x="433" d="M411 31Q388 14 359 4T296 -11L278 -43Q319 -47 342 -64T366 -118Q366 -141 355 -158T323 -186T276 -204T218 -210Q187 -210 154 -204L163 -156Q170 -157 176 -157T187 -157Q225 -157 236 -148T247 -127Q247 -99 161 -95L211 -11Q162 -5 128 16T73 71T43 150T33 250Q33 377 90 445T256 514Q311 514 344 505T405 482L374 376Q351 387 329 393T277 399Q223 399 195 364T167 250Q167 218 174 191T195 144T231 113T284 101Q317 101 340 109T381 130L411 31Z"  />
<glyph unicode="&#xE8;" horiz-adv-x="508" d="M329 566H257L133 690V720H269L329 566ZM271 410Q220 410 196 380T166 298H352Q352 302 352 306T353 314Q353 360 333 385T271 410ZM457 43Q427 19 376 3T266 -14Q145 -14 89 56T33 250Q33 382 96 448T273 514Q311 514 347 504T411 471T456 409T473 312Q473 291 471 267T463 217H163Q166 154 195 122T291 90Q332 90 364 102T414 128L457 43Z"  />
<glyph unicode="&#xE9;" horiz-adv-x="508" d="M274 720H406V690L295 566H221L274 720ZM271 410Q220 410 196 380T166 298H352Q352 302 352 306T353 314Q353 360 333 385T271 410ZM457 43Q427 19 376 3T266 -14Q145 -14 89 56T33 250Q33 382 96 448T273 514Q311 514 347 504T411 471T456 409T473 312Q473 291 471 267T463 217H163Q166 154 195 122T291 90Q332 90 364 102T414 128L457 43Z"  />
<glyph unicode="&#xEA;" horiz-adv-x="508" d="M221 732H307L418 550H315L276 616L259 665L242 616L197 550H98L221 732ZM271 410Q220 410 196 380T166 298H352Q352 302 352 306T353 314Q353 360 333 385T271 410ZM457 43Q427 19 376 3T266 -14Q145 -14 89 56T33 250Q33 382 96 448T273 514Q311 514 347 504T411 471T456 409T473 312Q473 291 471 267T463 217H163Q166 154 195 122T291 90Q332 90 364 102T414 128L457 43Z"  />
<glyph unicode="&#xEB;" horiz-adv-x="508" d="M301 651Q301 683 319 702T370 721Q402 721 421 702T441 651Q441 621 422 602T370 583Q338 583 320 602T301 651ZM82 651Q82 683 101 702T153 721Q185 721 203 702T222 651Q222 621 204 602T153 583Q121 583 102 602T82 651ZM271 410Q220 410 196 380T166 298H352Q352 302 352 306T353 314Q353 360 333 385T271 410ZM457 43Q427 19 376 3T266 -14Q145 -14 89 56T33 250Q33 382 96 448T273 514Q311 514 347 504T411 471T456 409T473 312Q473 291 471 267T463 217H163Q166 154 195 122T291 90Q332 90 364 102T414 128L457 43Z"  />
<glyph unicode="&#xEC;" horiz-adv-x="269" d="M193 566H121L-3 690V720H133L193 566ZM70 500H200V0H70V500Z"  />
<glyph unicode="&#xED;" horiz-adv-x="269" d="M124 720H256V690L145 566H71L124 720ZM70 500H200V0H70V500Z"  />
<glyph unicode="&#xEE;" horiz-adv-x="269" d="M92 732H178L289 550H186L147 616L130 665L113 616L68 550H-31L92 732ZM70 500H200V0H70V500Z"  />
<glyph unicode="&#xEF;" horiz-adv-x="269" d="M173 651Q173 683 191 702T242 721Q274 721 293 702T313 651Q313 621 294 602T242 583Q210 583 192 602T173 651ZM-46 651Q-46 683 -27 702T25 721Q57 721 75 702T94 651Q94 621 76 602T25 583Q-7 583 -26 602T-46 651ZM70 500H200V0H70V500Z"  />
<glyph unicode="&#xF0;" horiz-adv-x="563" d="M197 584L241 614Q224 621 207 626T172 635L224 715Q246 708 272 699T328 673L381 709L423 654L390 632Q417 609 442 579T485 508T515 416T526 302Q526 221 508 162T456 63T377 5T276 -14Q217 -14 172 5T97 58T52 140T37 245Q37 299 54 345T101 425T175 479T269 499Q307 499 339 489T392 458Q380 493 358 522T307 575L240 529L197 584ZM163 243Q163 171 196 134T284 96Q336 96 369 141T402 280Q402 293 401 314T395 347Q379 370 347 379T285 389Q225 389 194 348T163 243Z"  />
<glyph unicode="&#xF1;" horiz-adv-x="545" d="M107 658Q138 695 164 709T215 723Q235 723 253 716T290 701T325 686T360 679Q374 679 388 685T419 706L439 636Q410 604 386 592T338 580Q318 580 299 586T262 601T226 615T190 622Q175 622 159 616T126 593L107 658ZM363 0V284Q363 345 346 372T286 399Q249 399 224 378T187 324V0H57V500H160L175 434H179Q202 466 240 490T338 514Q375 514 404 504T453 471T483 409T493 311V0H363Z"  />
<glyph unicode="&#xF2;" horiz-adv-x="537" d="M331 566H259L135 690V720H271L331 566ZM167 250Q167 217 173 189T191 140T222 108T269 96Q320 96 345 133T370 250Q370 319 347 361T269 404Q221 404 194 368T167 250ZM33 250Q33 377 95 445T269 514Q329 514 373 495T446 442T489 358T504 250Q504 123 443 55T269 -14Q209 -14 165 5T92 58T48 142T33 250Z"  />
<glyph unicode="&#xF3;" horiz-adv-x="537" d="M275 720H407V690L296 566H222L275 720ZM167 250Q167 217 173 189T191 140T222 108T269 96Q320 96 345 133T370 250Q370 319 347 361T269 404Q221 404 194 368T167 250ZM33 250Q33 377 95 445T269 514Q329 514 373 495T446 442T489 358T504 250Q504 123 443 55T269 -14Q209 -14 165 5T92 58T48 142T33 250Z"  />
<glyph unicode="&#xF4;" horiz-adv-x="537" d="M231 732H317L428 550H325L286 616L269 665L252 616L207 550H108L231 732ZM167 250Q167 217 173 189T191 140T222 108T269 96Q320 96 345 133T370 250Q370 319 347 361T269 404Q221 404 194 368T167 250ZM33 250Q33 377 95 445T269 514Q329 514 373 495T446 442T489 358T504 250Q504 123 443 55T269 -14Q209 -14 165 5T92 58T48 142T33 250Z"  />
<glyph unicode="&#xF5;" horiz-adv-x="537" d="M104 658Q135 695 161 709T212 723Q232 723 250 716T287 701T322 686T357 679Q371 679 385 685T416 706L436 636Q407 604 383 592T335 580Q315 580 296 586T259 601T223 615T187 622Q172 622 156 616T123 593L104 658ZM167 250Q167 217 173 189T191 140T222 108T269 96Q320 96 345 133T370 250Q370 319 347 361T269 404Q221 404 194 368T167 250ZM33 250Q33 377 95 445T269 514Q329 514 373 495T446 442T489 358T504 250Q504 123 443 55T269 -14Q209 -14 165 5T92 58T48 142T33 250Z"  />
<glyph unicode="&#xF6;" horiz-adv-x="537" d="M307 651Q307 683 325 702T376 721Q408 721 427 702T447 651Q447 621 428 602T376 583Q344 583 326 602T307 651ZM88 651Q88 683 107 702T159 721Q191 721 209 702T228 651Q228 621 210 602T159 583Q127 583 108 602T88 651ZM167 250Q167 217 173 189T191 140T222 108T269 96Q320 96 345 133T370 250Q370 319 347 361T269 404Q221 404 194 368T167 250ZM33 250Q33 377 95 445T269 514Q329 514 373 495T446 442T489 358T504 250Q504 123 443 55T269 -14Q209 -14 165 5T92 58T48 142T33 250Z"  />
<glyph unicode="&#xF7;" horiz-adv-x="527" d="M183 145Q183 180 205 200T263 221Q301 221 323 201T345 145Q345 110 323 89T263 68Q227 68 205 89T183 145ZM183 532Q183 567 205 587T263 608Q301 608 323 588T345 532Q345 497 323 476T263 455Q227 455 205 476T183 532ZM43 394H485V282H43V394Z"  />
<glyph unicode="&#xF8;" horiz-adv-x="536" d="M33 250Q33 377 94 445T268 514Q300 514 327 509T377 492L401 526L481 467L454 429Q479 395 491 350T503 250Q503 123 442 55T268 -14Q234 -14 206 -8T153 10L128 -24L45 36L76 79Q54 112 44 155T33 250ZM369 250Q369 287 361 321L212 114Q234 96 268 96Q319 96 344 133T369 250ZM167 250Q167 215 173 185L320 389Q299 404 268 404Q220 404 194 368T167 250Z"  />
<glyph unicode="&#xF9;" horiz-adv-x="538" d="M318 566H246L122 690V720H258L318 566ZM182 500V216Q182 155 196 128T253 101Q290 101 314 123T351 177V500H481V152Q481 111 485 72T497 0H399L376 74H372Q349 36 308 11T211 -14Q173 -14 143 -4T93 29T63 91T52 189V500H182Z"  />
<glyph unicode="&#xFA;" horiz-adv-x="538" d="M261 720H393V690L282 566H208L261 720ZM182 500V216Q182 155 196 128T253 101Q290 101 314 123T351 177V500H481V152Q481 111 485 72T497 0H399L376 74H372Q349 36 308 11T211 -14Q173 -14 143 -4T93 29T63 91T52 189V500H182Z"  />
<glyph unicode="&#xFB;" horiz-adv-x="538" d="M232 732H318L429 550H326L287 616L270 665L253 616L208 550H109L232 732ZM182 500V216Q182 155 196 128T253 101Q290 101 314 123T351 177V500H481V152Q481 111 485 72T497 0H399L376 74H372Q349 36 308 11T211 -14Q173 -14 143 -4T93 29T63 91T52 189V500H182Z"  />
<glyph unicode="&#xFC;" horiz-adv-x="538" d="M307 651Q307 683 325 702T376 721Q408 721 427 702T447 651Q447 621 428 602T376 583Q344 583 326 602T307 651ZM88 651Q88 683 107 702T159 721Q191 721 209 702T228 651Q228 621 210 602T159 583Q127 583 108 602T88 651ZM182 500V216Q182 155 196 128T253 101Q290 101 314 123T351 177V500H481V152Q481 111 485 72T497 0H399L376 74H372Q349 36 308 11T211 -14Q173 -14 143 -4T93 29T63 91T52 189V500H182Z"  />
<glyph unicode="&#xFD;" horiz-adv-x="478" d="M254 720H386V690L275 566H201L254 720ZM239 219L257 141H263L276 220L352 500H486L334 49Q315 -7 298 -53T259 -134T213 -186T152 -205Q100 -205 69 -188L93 -84Q108 -90 123 -90Q146 -90 167 -71T200 0L-9 500H147L239 219Z"  />
<glyph unicode="&#xFE;" horiz-adv-x="540" d="M57 700H187V457H191Q212 483 241 498T319 514Q413 514 460 455T507 263Q507 199 492 148T448 60T376 5T278 -14Q247 -14 227 -10T187 5V-200H57V700ZM280 404Q244 404 222 385T187 328V120Q201 109 217 103T261 96Q317 96 345 135T373 266Q373 332 351 368T280 404Z"  />
<glyph unicode="&#xFF;" horiz-adv-x="478" d="M285 651Q285 683 303 702T354 721Q386 721 405 702T425 651Q425 621 406 602T354 583Q322 583 304 602T285 651ZM66 651Q66 683 85 702T137 721Q169 721 187 702T206 651Q206 621 188 602T137 583Q105 583 86 602T66 651ZM239 219L257 141H263L276 220L352 500H486L334 49Q315 -7 298 -53T259 -134T213 -186T152 -205Q100 -205 69 -188L93 -84Q108 -90 123 -90Q146 -90 167 -71T200 0L-9 500H147L239 219Z"  />
<glyph unicode="&#x152;" horiz-adv-x="915" d="M453 567Q432 578 402 585T335 592Q262 592 222 534T182 350Q182 297 191 253T219 176T269 126T342 108Q371 108 397 111T453 127V567ZM453 0Q434 -7 401 -10T335 -14Q259 -14 203 12T111 86T56 201T38 350Q38 525 115 619T335 714Q374 714 402 710T453 700H868V578H590V415H843V293H590V122H873V0H453Z"  />
<glyph unicode="&#x153;" horiz-adv-x="841" d="M167 250Q167 217 173 189T191 140T222 108T269 96Q320 96 345 133T370 250Q370 319 347 361T269 404Q221 404 194 368T167 250ZM431 60Q406 27 367 7T269 -14Q209 -14 165 5T92 58T48 142T33 250Q33 377 95 445T269 514Q335 514 375 492T438 442Q461 471 501 492T606 514Q644 514 680 504T744 471T789 409T806 312Q806 291 804 267T796 217H495Q498 154 528 122T624 90Q665 90 697 102T747 128L790 43Q760 19 709 3T599 -14Q488 -14 431 60ZM604 410Q553 410 529 380T499 298H685Q685 302 685 306T686 314Q686 360 666 385T604 410Z"  />
<glyph unicode="&#x160;" horiz-adv-x="530" d="M328 737H234L107 831V870H212L265 825L284 795L305 824L361 870H461V830L328 737ZM362 188Q362 220 339 240T280 276T203 310T126 353T67 417T43 514Q43 565 60 602T108 665T183 702T279 714Q340 714 394 704T483 673L440 558Q418 572 374 583T279 595Q231 595 206 576T180 525Q180 495 203 475T262 438T339 403T416 360T475 297T499 203Q499 147 481 107T429 39T348 -1T243 -14Q168 -14 111 0T27 28L71 145Q82 139 99 132T139 119T185 109T236 105Q297 105 329 125T362 188Z"  />
<glyph unicode="&#x161;" horiz-adv-x="422" d="M252 550H161L46 732H156L195 666L211 617L229 666L274 732H375L252 550ZM264 138Q264 158 247 170T205 192T150 212T95 241T53 288T36 362Q36 436 80 475T207 514Q264 514 310 502T382 475L353 381Q330 390 295 400T224 410Q166 410 166 365Q166 347 183 336T225 316T280 295T335 267T377 221T394 149Q394 73 346 30T200 -14Q147 -14 101 -1T25 31L61 128Q84 115 122 103T200 90Q229 90 246 101T264 138Z"  />
<glyph unicode="&#x178;" horiz-adv-x="592" d="M330 798Q330 824 348 840T405 856Q445 856 463 840T481 798Q481 772 463 757T405 741Q366 741 348 756T330 798ZM116 798Q116 824 134 840T192 856Q231 856 249 840T267 798Q267 772 249 757T192 741Q152 741 134 756T116 798ZM228 260L-2 700H161L289 437L303 363H308L323 439L447 700H594L365 261V0H228V260Z"  />
<glyph unicode="&#x17D;" horiz-adv-x="539" d="M309 737H215L88 831V870H193L246 825L265 795L286 824L342 870H442V830L309 737ZM27 122L323 536L375 578H27V700H512V578L214 160L163 122H512V0H27V122Z"  />
<glyph unicode="&#x17E;" horiz-adv-x="458" d="M269 550H178L63 732H173L212 666L228 617L246 666L291 732H392L269 550ZM31 110L228 347L279 390H31V500H423V390L228 149L178 110H423V0H31V110Z"  />
<glyph unicode="&#x192;" horiz-adv-x="567" d="M342 390L271 -34Q265 -71 254 -102T222 -157T171 -194T96 -208Q82 -208 62 -206T20 -201T-20 -194T-52 -184L-31 -79Q-8 -89 13 -93T62 -98Q98 -98 118 -74T147 8L208 390H130V500H226L237 567Q243 604 253 631T282 677T330 705T402 714Q418 714 438 712T480 705T521 695T556 682L524 585Q475 604 429 604Q397 604 385 589T366 533L361 500H480V390H342Z"  />
<glyph unicode="&#x2C6;" horiz-adv-x="440" d="M183 732H269L380 550H277L238 616L221 665L204 616L159 550H60L183 732Z"  />
<glyph unicode="&#x2DC;" horiz-adv-x="452" d="M60 658Q91 695 117 709T168 723Q188 723 206 716T243 701T278 686T313 679Q327 679 341 685T372 706L392 636Q363 604 339 592T291 580Q271 580 252 586T215 601T179 615T143 622Q128 622 112 616T79 593L60 658Z"  />
<glyph unicode="&#x3BC;" horiz-adv-x="569" d="M182 500V227Q182 163 202 131T274 98Q320 98 348 121T388 185V500H518V163Q518 122 520 81T533 0H437L405 74H401Q384 39 351 14T265 -12Q226 -12 205 2T166 38H161L182 -67V-200H52V500H182Z"  />
<glyph unicode="&#x2013;" horiz-adv-x="660" d="M109 346H551V231H109V346Z"  />
<glyph unicode="&#x2014;" horiz-adv-x="820" d="M109 346H711V231H109V346Z"  />
<glyph unicode="&#x2018;" horiz-adv-x="223" d="M185 618Q185 589 166 572T117 554Q80 554 59 577T38 640Q38 680 50 708T80 754T117 783T150 799L182 745Q162 737 148 720T132 682Q152 682 168 665T185 618Z"  />
<glyph unicode="&#x2019;" horiz-adv-x="223" d="M38 644Q38 673 57 691T107 709Q143 709 164 685T185 622Q185 582 173 554T143 508T106 479T73 463L40 518Q60 527 75 542T93 580Q73 579 56 595T38 644Z"  />
<glyph unicode="&#x201A;" horiz-adv-x="223" d="M38 61Q38 90 57 108T107 126Q143 126 164 102T185 39Q185 -1 173 -29T143 -75T106 -104T73 -120L40 -65Q60 -56 75 -41T93 -3Q73 -4 56 12T38 61Z"  />
<glyph unicode="&#x201C;" horiz-adv-x="396" d="M185 618Q185 589 166 572T117 554Q80 554 59 577T38 640Q38 680 50 708T80 754T117 783T150 799L182 745Q162 737 148 720T132 682Q152 682 168 665T185 618ZM358 618Q358 589 339 572T290 554Q253 554 232 577T211 640Q211 680 223 708T253 754T290 783T323 799L355 745Q335 737 321 720T305 682Q325 682 341 665T358 618Z"  />
<glyph unicode="&#x201D;" horiz-adv-x="396" d="M38 643Q38 672 57 690T107 708Q143 708 164 684T185 621Q185 581 173 553T143 507T106 478T73 462L40 517Q60 526 75 541T93 579Q73 578 56 594T38 643ZM211 643Q211 672 230 690T280 708Q316 708 337 684T358 621Q358 581 346 553T316 507T279 478T246 462L213 517Q233 526 248 541T266 579Q246 578 229 594T211 643Z"  />
<glyph unicode="&#x201E;" horiz-adv-x="396" d="M38 61Q38 90 57 108T107 126Q143 126 164 102T185 39Q185 -1 173 -29T143 -75T106 -104T73 -120L40 -65Q60 -56 75 -41T93 -3Q73 -4 56 12T38 61ZM211 61Q211 90 230 108T280 126Q316 126 337 102T358 39Q358 -1 346 -29T316 -75T279 -104T246 -120L213 -65Q233 -56 248 -41T266 -3Q246 -4 229 12T211 61Z"  />
<glyph unicode="&#x2020;" horiz-adv-x="509" d="M40 513H156L208 497L192 551V700H316V551L301 497L352 513H469V401H350L301 417L316 367V0L300 -200H208L192 1V367L208 417L156 401H40V513Z"  />
<glyph unicode="&#x2021;" horiz-adv-x="509" d="M192 371L208 416L156 401H40V513H156L208 498L192 548V700H316V548L301 498L352 513H469V401H350L301 416L316 371V287L301 242L350 257H469V145H352L301 160L316 110V0L299 -200H209L192 1V110L208 160L156 145H40V257H156L208 242L192 287V371Z"  />
<glyph unicode="&#x2022;" horiz-adv-x="452" d="M73 311Q73 345 85 373T118 421T166 452T225 464Q257 464 285 454T333 424T366 376T378 311Q378 275 366 247T334 200T285 170T225 159Q194 159 167 169T118 199T85 247T73 311Z"  />
<glyph unicode="&#x2026;" horiz-adv-x="809" d="M597 66Q597 101 619 121T677 142Q715 142 737 122T759 66Q759 31 737 10T677 -11Q641 -11 619 10T597 66ZM325 66Q325 101 347 121T405 142Q443 142 465 122T487 66Q487 31 465 10T405 -11Q369 -11 347 10T325 66ZM53 66Q53 101 75 121T133 142Q171 142 193 122T215 66Q215 31 193 10T133 -11Q97 -11 75 10T53 66Z"  />
<glyph unicode="&#x2030;" horiz-adv-x="1232" d="M677 714L750 648L174 -14L101 55L677 714ZM957 170Q957 84 1016 84Q1047 84 1060 102T1074 170Q1074 218 1061 237T1016 256Q985 256 971 237T957 170ZM840 170Q840 215 853 247T889 300T945 330T1016 340Q1054 340 1086 331T1141 302T1178 250T1191 170Q1191 123 1178 91T1142 38T1086 9T1016 0Q978 0 946 9T890 38T853 90T840 170ZM569 170Q569 84 628 84Q659 84 672 102T686 170Q686 218 673 237T628 256Q597 256 583 237T569 170ZM452 170Q452 215 465 247T501 300T557 330T628 340Q666 340 698 331T753 302T790 250T803 170Q803 123 790 91T754 38T698 9T628 0Q590 0 558 9T502 38T465 90T452 170ZM168 542Q168 456 227 456Q258 456 271 474T285 542Q285 590 272 609T227 628Q196 628 182 609T168 542ZM51 542Q51 587 64 619T100 672T156 702T227 712Q265 712 297 703T352 674T389 622T402 542Q402 495 389 463T353 410T297 381T227 372Q189 372 157 381T101 410T64 462T51 542Z"  />
<glyph unicode="&#x2039;" horiz-adv-x="307" d="M29 259L189 489L264 427L181 301L133 260L181 224L272 102L195 38L29 259Z"  />
<glyph unicode="&#x203A;" horiz-adv-x="307" d="M278 268L118 38L42 99L126 226L174 267L126 303L34 426L112 489L278 268Z"  />
<glyph unicode="&#x20AC;" horiz-adv-x="567" d="M34 475H95Q110 539 138 584T205 658T289 700T384 714Q436 714 476 706T544 687L509 584Q487 593 458 597T390 602Q330 602 287 572T222 475H481L455 382H206Q205 374 205 366T205 350V324H435L409 231H220Q240 166 284 132T400 98Q442 98 472 107T527 130L554 29Q539 18 518 10T474 -4T427 -11T381 -14Q271 -14 195 45T94 231H2L34 324H83V350Q83 358 83 366T84 382H2L34 475Z"  />
<glyph unicode="&#x2122;" horiz-adv-x="948" d="M800 484L817 587H811L775 502L707 385H629L561 499L522 587H517L540 485V340H429V700H559L650 550L674 487H675L700 552L784 700H913V340H800V484ZM395 590H277V340H147V590H29V700H395V590Z"  />


</font>
</defs>
</svg>
