<?xml  version="1.0" encoding="UTF-8"?>
<!DOCTYPE svg PUBLIC "-//W3C//DTD SVG 1.0//EN" "http://www.w3.org/TR/2001/REC-SVG-20010904/DTD/svg10.dtd" >
<svg xmlns="http://www.w3.org/2000/svg" >
<metadata>
<version>1.0</version>
<id><![CDATA[PT Sans W01 Regular]]></id>
<vendor>Monotype Imaging Inc.</vendor>
<credits>
<name>Fonts.com WebFonts</name>
<URL>http://webfonts.fonts.com</URL>
<role>Home of the Web fonts</role>
</credits>
<license>
<URL>http://webfonts.fonts.com/Legal</URL>
</license>
<copyright></copyright>
<trademark></trademark>
<licensee>
<name></name>
</licensee>
</metadata>
<defs >
<font horiz-adv-x="506" id="8c0f18a7-b57a-47e7-a15f-d5b72e0c4992">
<font-face font-family="" panose-1="2 11 5 3 2 2 3 2 2 4" ascent="747" descent="-253" units-per-em="1000" alphabetic="0">
</font-face>
<missing-glyph horiz-adv-x="0" />

<glyph unicode="&#xA;" />
<glyph unicode="&#xD;" />
<glyph unicode=" " horiz-adv-x="267" />
<glyph unicode="!" horiz-adv-x="305" d="M110 46Q110 73 125 88T167 104Q194 104 210 89T226 46Q226 20 210 4T167 -12Q141 -12 126 4T110 46ZM127 700H210V353L193 177H144L127 353V700Z"  />
<glyph unicode="&quot;" horiz-adv-x="335" d="M90 700H168L137 507H90V700ZM207 700H285L254 507H207V700Z"  />
<glyph unicode="#" horiz-adv-x="545" d="M280 225H175L136 58H67L106 225H28L42 289H121L152 420H78L92 484H167L205 642H274L236 484H341L379 642H448L410 484H487L471 420H395L364 289H437L421 225H349L310 58H241L280 225ZM190 289H295L326 420H221L190 289Z"  />
<glyph unicode="$" horiz-adv-x="545" d="M242 -12Q187 -11 145 -3T76 20L103 93Q123 81 157 72T242 60V330Q212 345 183 362T130 402T93 458T79 534Q79 606 119 652T242 709V800H310V712Q361 710 393 703T452 683L428 613Q408 623 380 630T310 640V393Q341 377 372 359T427 316T467 260T482 185Q482 107 439 57T310 -8V-100H242V-12ZM399 178Q399 202 391 221T368 255T335 282T294 305V62Q340 70 369 98T399 178ZM162 539Q162 496 189 469T258 420V639Q205 633 184 604T162 539Z"  />
<glyph unicode="%" horiz-adv-x="773" d="M637 713L686 675L173 -12L123 27L637 713ZM501 170Q501 110 522 84T582 58Q601 58 616 63T641 81T657 115T663 170Q663 203 658 224T642 258T616 276T582 282Q544 282 523 259T501 170ZM427 170Q427 215 439 247T471 300T520 330T582 340Q615 340 643 331T692 302T725 250T737 170Q737 123 725 91T693 38T644 9T582 0Q549 0 521 9T472 38T439 90T427 170ZM144 542Q144 482 165 456T225 430Q244 430 259 435T284 453T300 487T306 542Q306 575 301 596T285 630T259 648T225 654Q187 654 166 631T144 542ZM70 542Q70 587 82 619T114 672T163 702T225 712Q258 712 286 703T335 674T368 622T380 542Q380 495 368 463T336 410T287 381T225 372Q192 372 164 381T115 410T82 462T70 542Z"  />
<glyph unicode="&amp;" horiz-adv-x="814" d="M118 187Q118 227 132 263T170 331T224 388T288 434Q264 470 247 506T229 584Q229 608 237 631T262 672T307 701T374 712Q415 712 443 702T488 674T512 636T520 593Q520 551 488 507T385 421Q401 392 422 362T468 301T517 242T567 187Q578 199 589 217T610 256T629 299T645 341L707 312Q701 295 690 272T666 224T638 177T612 139Q633 119 650 105T681 80T709 61T737 44L687 -12Q634 14 566 81Q548 63 527 47T478 17T419 -4T347 -12Q300 -12 259 1T186 39T137 102T118 187ZM519 131Q490 160 462 194T409 262T362 327T325 383Q298 363 275 342T235 298T208 247T198 189Q198 158 211 134T246 93T298 67T359 58Q409 58 452 80T519 131ZM307 584Q307 554 319 525T352 466Q405 500 425 528T446 577Q446 609 431 629T377 649Q341 649 324 631T307 584Z"  />
<glyph unicode="&apos;" horiz-adv-x="218" d="M90 700H168L137 507H90V700Z"  />
<glyph unicode="(" horiz-adv-x="280" d="M227 -220Q181 -172 149 -115T98 3T69 125T60 243Q60 298 69 359T98 481T150 602T230 712L278 677Q238 626 212 572T169 461T147 350T140 243Q140 195 147 139T171 26T214 -85T278 -183L227 -220Z"  />
<glyph unicode=")" horiz-adv-x="280" d="M53 712Q99 664 131 607T182 489T211 367T220 249Q220 194 211 133T182 11T130 -110T50 -220L2 -185Q42 -134 69 -79T111 32T133 143T140 249Q140 297 132 353T108 466T65 577T2 675L53 712Z"  />
<glyph unicode="*" horiz-adv-x="351" d="M130 715L155 673L173 617L194 674L218 714L266 688L240 645L194 597L262 609H310V553H264L200 565L246 517L269 478L222 450L196 492L173 553L154 495L129 453L79 481L106 523L148 565L90 553H40V609H90L152 597L107 641L81 687L130 715Z"  />
<glyph unicode="+" horiz-adv-x="505" d="M40 374H216V555H288V374H464V302H288V121H216V302H40V374Z"  />
<glyph unicode="&#x2c;" horiz-adv-x="225" d="M49 43Q49 67 65 82T106 97Q137 97 156 75T176 11Q176 -25 166 -52T140 -98T105 -130T67 -149L42 -110Q78 -96 95 -67T113 -7Q104 -10 96 -10Q76 -10 63 3T49 43Z"  />
<glyph unicode="-" horiz-adv-x="360" d="M59 325H301V251H59V325Z"  />
<glyph unicode="." horiz-adv-x="214" d="M49 46Q49 73 64 88T106 104Q133 104 149 89T165 46Q165 20 149 4T106 -12Q80 -12 65 4T49 46Z"  />
<glyph unicode="/" horiz-adv-x="354" d="M328 712L391 684L26 -140L-37 -112L328 712Z"  />
<glyph unicode="0" horiz-adv-x="545" d="M43 350Q43 530 101 621T272 712Q393 712 447 623T502 350Q502 170 444 79T272 -12Q153 -12 98 83T43 350ZM126 350Q126 285 134 232T161 140T206 80T272 58Q348 58 383 128T419 350Q419 414 412 468T387 560T341 620T272 642Q197 642 162 571T126 350Z"  />
<glyph unicode="1" horiz-adv-x="545" d="M108 74H248V558L258 617L218 570L108 491L70 542L290 712H326V74H463V0H108V74Z"  />
<glyph unicode="2" horiz-adv-x="545" d="M446 541Q446 488 427 433T376 321T305 212T227 110L178 67V63L242 74H460V0H62V29Q84 52 115 86T179 161T245 249T304 344T347 439T363 528Q363 577 335 609T250 642Q212 642 176 627T114 591L81 648Q116 678 164 695T267 712Q310 712 343 700T399 664T434 610T446 541Z"  />
<glyph unicode="3" horiz-adv-x="545" d="M234 58Q268 58 297 68T347 98T380 144T392 203Q392 273 351 307T236 341H162V370L306 592L352 636L287 626H89V700H446V671L287 432L252 403V401L286 408Q326 407 360 394T419 355T458 294T472 213Q472 159 453 117T402 47T325 3T232 -12Q187 -12 151 -5T88 13L109 84Q132 73 163 66T234 58Z"  />
<glyph unicode="4" horiz-adv-x="545" d="M524 215H406V0H328V215H20V248L352 711H406V285H524V215ZM328 503L338 585H335L300 517L159 326L111 277L181 285H328V503Z"  />
<glyph unicode="5" horiz-adv-x="545" d="M213 58Q282 58 327 98T372 214Q372 287 328 323T205 359L121 354V700H433V626H196V427L239 429Q338 428 395 374T452 219Q452 163 433 120T382 47T305 3T211 -12Q166 -12 135 -7T77 8L98 75Q121 66 147 62T213 58Z"  />
<glyph unicode="6" horiz-adv-x="545" d="M492 211Q492 165 478 125T437 54T370 6T279 -12Q229 -12 189 4T120 51T76 129T60 235Q60 334 85 417T156 563T262 663T396 712L413 648Q357 638 311 610T231 541T174 449T144 344Q160 371 198 393T291 416Q385 416 438 362T492 211ZM409 203Q409 274 376 310T274 346Q225 346 190 322T140 268Q138 254 138 245T138 225Q138 194 146 164T173 111T217 73T280 58Q309 58 332 69T373 99T399 145T409 203Z"  />
<glyph unicode="7" horiz-adv-x="545" d="M110 0L361 586L405 635L346 626H61V700H479V673L191 0H110Z"  />
<glyph unicode="8" horiz-adv-x="545" d="M68 167Q68 230 101 276T204 361Q179 376 158 392T120 430T94 477T84 537Q84 576 97 608T136 663T197 699T278 712Q320 712 354 700T411 667T448 617T461 553Q461 496 435 453T349 367Q375 352 398 334T439 294T467 245T477 182Q477 139 463 104T422 43T356 3T267 -12Q219 -12 182 2T120 40T81 96T68 167ZM399 177Q399 207 387 229T356 270T311 304T259 333Q198 299 172 257T146 177Q146 153 154 131T178 93T217 68T272 58Q297 58 320 65T360 87T388 124T399 177ZM162 539Q162 511 173 490T202 451T245 420T295 392Q340 427 361 461T383 536Q383 587 352 614T276 642Q249 642 228 634T192 611T170 578T162 539Z"  />
<glyph unicode="9" horiz-adv-x="545" d="M52 488Q52 536 66 577T107 648T174 695T269 712Q371 712 428 646T485 460Q485 347 460 263T389 120T283 30T149 -12L131 52Q189 61 235 86T315 149T370 235T399 341Q372 309 340 297T254 284Q213 284 177 297T112 337T68 401T52 488ZM135 496Q135 425 172 390T271 354Q320 354 355 370T405 412Q407 425 407 435T407 456Q407 492 399 525T373 585T329 626T264 642Q203 642 169 604T135 496Z"  />
<glyph unicode=":" horiz-adv-x="219" d="M91 46Q91 73 106 88T148 104Q175 104 191 89T207 46Q207 20 191 4T148 -12Q122 -12 107 4T91 46ZM91 449Q91 476 106 491T148 507Q175 507 191 492T207 449Q207 423 191 407T148 391Q122 391 107 407T91 449Z"  />
<glyph unicode=";" horiz-adv-x="256" d="M96 449Q96 476 111 491T153 507Q180 507 196 492T212 449Q212 423 196 407T153 391Q127 391 112 407T96 449ZM89 43Q89 67 105 82T146 97Q177 97 196 75T216 11Q216 -25 206 -52T180 -98T145 -130T107 -149L82 -110Q118 -96 135 -67T153 -7Q144 -10 136 -10Q116 -10 103 3T89 43Z"  />
<glyph unicode="&lt;" horiz-adv-x="505" d="M42 305V334L420 565L458 503L221 358L130 320L220 288L463 144L425 84L42 305Z"  />
<glyph unicode="=" horiz-adv-x="505" d="M40 291H464V219H40V291ZM40 457H464V385H40V457Z"  />
<glyph unicode="&gt;" horiz-adv-x="505" d="M463 344V315L85 84L47 145L284 290L375 328L285 360L42 504L80 565L463 344Z"  />
<glyph unicode="?" horiz-adv-x="436" d="M130 46Q130 73 145 88T187 104Q214 104 230 89T246 46Q246 20 230 4T187 -12Q161 -12 146 4T130 46ZM150 177Q149 182 149 188T149 199Q149 241 161 273T192 331T232 381T272 427T303 477T316 538Q316 584 290 613T201 642Q165 642 128 630T64 600L37 662Q75 685 117 698T221 712Q265 712 298 700T354 665T388 613T399 549Q399 504 386 471T352 410T308 358T264 308T230 250T216 177H150Z"  />
<glyph unicode="@" horiz-adv-x="1064" d="M707 491H741L690 204Q685 178 683 158T680 121Q680 96 688 85T718 73Q752 73 785 91T845 142T887 221T904 326Q904 403 878 462T805 561T693 623T550 644Q469 644 398 614T274 531T191 404T160 243Q160 154 187 84T266 -34T388 -107T546 -132Q575 -132 612 -125T679 -104L699 -168Q654 -187 616 -193T534 -200Q441 -200 360 -172T218 -89T122 47T87 236Q87 345 124 433T226 583T375 678T555 712Q645 712 722 686T855 610T944 489T977 326Q977 262 955 204T896 101T808 31T702 4Q660 4 635 22T610 89Q610 98 611 108T614 131H610Q596 108 577 86T535 45T485 16T429 4Q405 4 383 14T345 45T320 92T310 155Q310 219 331 281T387 391T470 468T571 498Q608 498 630 487T673 460L707 491ZM650 393Q633 413 616 420T573 428Q534 428 500 405T442 344T403 260T388 168Q388 129 404 102T462 74Q482 74 503 87T546 123T586 173T620 230L650 393Z"  />
<glyph unicode="A" horiz-adv-x="585" d="M418 194H160L90 0H8L273 711H311L577 0H490L418 194ZM187 266H393L315 479L290 585H289L264 477L187 266Z"  />
<glyph unicode="B" horiz-adv-x="584" d="M507 540Q507 515 499 489T475 441T434 401T375 375V371Q405 366 432 354T481 321T515 270T528 199Q528 145 506 106T447 41T363 4T267 -8Q250 -8 227 -8T179 -7T129 -3T85 5V694Q122 700 171 704T278 708Q317 708 357 702T431 677T485 625T507 540ZM275 64Q307 64 337 72T390 96T426 136T440 193Q440 234 424 259T381 298T321 317T255 322H168V71Q175 69 188 68T216 66T247 65T275 64ZM220 392Q237 392 261 393T301 396Q325 404 346 415T383 443T409 479T419 523Q419 556 407 578T373 613T325 631T270 636Q237 636 210 635T168 630V392H220Z"  />
<glyph unicode="C" horiz-adv-x="571" d="M533 29Q503 6 457 -3T359 -12Q296 -12 241 9T145 75T80 187T56 350Q56 448 82 516T152 628T250 692T360 712Q420 712 458 706T523 688L503 615Q455 638 366 638Q325 638 285 623T214 574T163 485T144 350Q144 278 162 224T211 134T285 80T378 62Q423 62 456 71T513 94L533 29Z"  />
<glyph unicode="D" horiz-adv-x="654" d="M85 700Q104 703 127 704T176 706T226 707T272 708Q356 708 417 682T519 610T578 498T598 355Q598 284 580 219T521 103T417 22T262 -9Q246 -9 221 -9T168 -7T118 -4T85 -1V700ZM274 634Q261 634 246 634T215 633T188 631T168 629V69Q173 68 187 68T216 67T245 66T264 65Q334 65 381 89T457 153T498 246T510 355Q510 404 499 453T461 543T389 608T274 634Z"  />
<glyph unicode="E" horiz-adv-x="536" d="M85 700H466V626H168V397H441V323H168V74H471V0H85V700Z"  />
<glyph unicode="F" horiz-adv-x="517" d="M85 700H466V626H168V387H446V313H168V0H85V700Z"  />
<glyph unicode="G" horiz-adv-x="612" d="M321 349H556V41Q540 29 518 19T470 2T417 -8T363 -12Q296 -12 240 9T143 75T79 188T56 350Q56 447 84 516T157 628T258 692T370 712Q430 712 469 706T535 688L514 615Q466 638 377 638Q335 638 294 624T219 575T165 486T144 350Q144 276 161 222T208 133T282 80T376 62Q440 62 485 87V282L321 302V349Z"  />
<glyph unicode="H" horiz-adv-x="672" d="M504 321H168V0H85V700H168V395H504V700H587V0H504V321Z"  />
<glyph unicode="I" horiz-adv-x="291" d="M104 700H187V0H104V700Z"  />
<glyph unicode="J" horiz-adv-x="291" d="M112 700H195V154Q195 74 160 32T52 -10Q44 -10 32 -9T8 -6T-15 -1T-34 6L-18 77Q10 64 43 64Q85 64 98 93T112 174V700Z"  />
<glyph unicode="K" horiz-adv-x="610" d="M215 324H168V0H85V700H168V374L213 388L448 700H544L310 399L268 366L319 326L575 0H470L215 324Z"  />
<glyph unicode="L" horiz-adv-x="517" d="M499 0H85V700H168V74H499V0Z"  />
<glyph unicode="M" horiz-adv-x="791" d="M623 470L633 575H628L590 479L408 163H383L190 480L154 575H149L163 471V0H85V700H147L366 342L399 264H401L432 344L641 700H706V0H623V470Z"  />
<glyph unicode="N" horiz-adv-x="673" d="M211 458L157 559H153L163 458V0H85V711H129L464 244L516 148H521L510 244V700H588V-11H544L211 458Z"  />
<glyph unicode="O" horiz-adv-x="684" d="M56 350Q56 525 130 618T341 712Q415 712 469 686T558 613T611 499T628 350Q628 175 554 82T341 -12Q268 -12 215 14T126 87T73 201T56 350ZM144 350Q144 292 155 240T191 149T252 86T341 62Q434 62 487 132T540 350Q540 407 529 459T493 551T431 614T341 638Q249 638 197 568T144 350Z"  />
<glyph unicode="P" horiz-adv-x="559" d="M85 693Q123 702 167 705T254 708Q300 708 347 699T434 666T497 600T522 493Q522 429 499 385T438 314T351 274T250 262Q245 262 234 262T210 262T185 264T168 266V0H85V693ZM256 636Q230 636 206 635T168 630V340Q173 338 184 338T207 337T230 336T246 336Q280 336 313 342T374 366T417 414T434 493Q434 534 419 561T378 605T320 629T256 636Z"  />
<glyph unicode="Q" horiz-adv-x="684" d="M704 -171Q680 -178 657 -180T611 -183Q561 -183 514 -173T422 -150T336 -127T258 -116Q234 -116 212 -122V-49Q226 -46 239 -44T266 -42Q308 -42 349 -52T434 -75T522 -98T617 -109Q661 -109 704 -99V-171ZM56 350Q56 525 130 618T341 712Q415 712 469 686T558 613T611 499T628 350Q628 175 554 82T341 -12Q268 -12 215 14T126 87T73 201T56 350ZM144 350Q144 292 155 240T191 149T252 86T341 62Q434 62 487 132T540 350Q540 407 529 459T493 551T431 614T341 638Q249 638 197 568T144 350Z"  />
<glyph unicode="R" horiz-adv-x="595" d="M85 693Q123 700 172 704T263 708Q309 708 350 698T423 665T474 605T493 515Q493 433 448 382T334 314L382 277L556 0H459L266 302L168 317V0H85V693ZM265 636Q252 636 238 636T211 635T187 633T168 630V372H246Q315 372 360 406T405 512Q405 566 368 601T265 636Z"  />
<glyph unicode="S" horiz-adv-x="531" d="M401 178Q401 220 376 246T314 293T232 332T151 375T88 438T63 534Q63 616 120 664T282 712Q343 712 393 703T471 680L446 607Q423 618 379 628T278 638Q212 638 179 609T146 539Q146 500 171 474T233 428T315 387T396 341T459 277T484 185Q484 140 468 104T421 42T346 2T246 -12Q171 -12 122 -1T46 25L74 100Q97 87 142 75T243 62Q276 62 305 68T355 89T388 126T401 178Z"  />
<glyph unicode="T" horiz-adv-x="555" d="M537 626H319V0H236V626H18V700H537V626Z"  />
<glyph unicode="U" horiz-adv-x="652" d="M487 700H567V233Q567 170 551 124T504 49T430 5T335 -9Q211 -9 148 47T85 217V700H168V256Q168 203 178 167T210 108T262 75T336 65Q417 65 452 109T487 256V700Z"  />
<glyph unicode="V" horiz-adv-x="568" d="M267 219L291 113H292L318 221L487 700H570L305 -11H268L-2 700H89L267 219Z"  />
<glyph unicode="W" horiz-adv-x="828" d="M222 231L238 115H239L256 233L400 700H440L585 231L602 115H603L621 233L739 700H820L625 -11H579L437 458L419 564H414L396 457L254 -11H208L8 700H96L222 231Z"  />
<glyph unicode="X" horiz-adv-x="618" d="M259 356L46 700H146L288 463L313 406L337 463L487 700H579L359 363L589 0H492L334 251L307 311L281 251L119 0H26L259 356Z"  />
<glyph unicode="Y" horiz-adv-x="558" d="M239 278L8 700H105L269 394L286 333H287L305 396L462 700H551L322 279V0H239V278Z"  />
<glyph unicode="Z" horiz-adv-x="545" d="M38 75L391 586L433 626H38V700H508V625L153 111L111 74H508V0H38V75Z"  />
<glyph unicode="[" horiz-adv-x="304" d="M85 700H266V630H163V-160H266V-230H85V700Z"  />
<glyph unicode="\" horiz-adv-x="380" d="M399 -111L333 -140L-37 684L30 712L399 -111Z"  />
<glyph unicode="]" horiz-adv-x="304" d="M220 -230H38V-160H142V630H38V700H220V-230Z"  />
<glyph unicode="^" horiz-adv-x="500" d="M234 711H263L432 435H350L270 570L247 639L216 569L124 435H48L234 711Z"  />
<glyph unicode="_" horiz-adv-x="408" d="M0 -135H408V-205H0V-135Z"  />
<glyph unicode="`" horiz-adv-x="280" d="M220 571H175L60 699V720H155L220 571Z"  />
<glyph unicode="a" horiz-adv-x="496" d="M69 463Q107 486 157 497T263 508Q315 508 346 494T394 458T416 408T422 354Q422 294 419 237T416 129Q416 92 419 59T430 -2H371L350 68H345Q336 54 323 41T290 17T246 -1T189 -8Q157 -8 130 2T82 30T51 75T39 134Q39 178 57 207T107 254T185 279T286 287Q300 287 313 287T341 285Q344 315 344 339Q344 394 322 416T242 438Q225 438 206 436T166 429T127 418T94 404L69 463ZM211 62Q239 62 261 69T299 88T325 114T341 141V224Q327 225 313 225T284 226Q253 226 224 223T172 210T136 184T122 142Q122 107 147 85T211 62Z"  />
<glyph unicode="b" horiz-adv-x="540" d="M77 700H157V451H161Q184 480 219 496T297 512Q394 512 442 450T491 258Q491 127 427 59T247 -9Q191 -9 146 3T77 29V700ZM283 442Q233 442 202 414T157 335V82Q176 71 203 66T259 61Q327 61 367 109T408 259Q408 298 401 331T379 389T341 428T283 442Z"  />
<glyph unicode="c" horiz-adv-x="451" d="M418 33Q388 11 347 0T261 -12Q203 -12 163 6T98 59T61 142T49 250Q49 377 105 444T266 512Q314 512 347 505T408 483L385 414Q362 427 334 434T274 442Q132 442 132 250Q132 212 139 178T164 117T210 74T281 58Q317 58 345 69T392 94L418 33Z"  />
<glyph unicode="d" horiz-adv-x="538" d="M461 172Q461 121 462 80T471 -2H417L397 69H393Q373 34 335 11T246 -12Q146 -12 98 51T49 248Q49 376 109 442T276 509Q313 509 334 505T381 492V700H461V172ZM259 58Q359 58 381 165V414Q363 428 340 433T279 439Q211 439 172 393T132 248Q132 207 138 172T160 112T199 72T259 58Z"  />
<glyph unicode="e" horiz-adv-x="508" d="M442 40Q412 16 367 2T270 -12Q213 -12 171 6T102 59T62 142T49 250Q49 378 106 445T269 512Q303 512 337 505T398 476T442 417T459 315Q459 282 453 242H132Q132 198 141 164T169 107T218 71T293 58Q327 58 361 70T412 98L442 40ZM270 442Q211 442 176 411T133 305H381Q381 381 352 411T270 442Z"  />
<glyph unicode="f" horiz-adv-x="319" d="M22 500H100V528Q100 574 107 608T132 663T176 695T243 706Q275 706 299 702T351 687L333 621Q310 631 290 633T251 636Q225 636 211 628T190 605T182 567T180 514V500H313V430H180V0H100V430H22V500Z"  />
<glyph unicode="g" horiz-adv-x="537" d="M460 -23Q460 -120 409 -166T256 -212Q196 -212 160 -205T97 -185L118 -118Q141 -127 169 -134T242 -142Q284 -142 310 -134T353 -109T375 -65T381 1V49H377Q357 20 326 5T245 -11Q144 -11 97 52T49 248Q49 376 110 442T290 509Q347 509 387 500T460 479V-23ZM259 59Q310 59 339 84T380 164V421Q342 439 278 439Q210 439 171 393T132 249Q132 207 139 172T161 112T200 73T259 59Z"  />
<glyph unicode="h" horiz-adv-x="547" d="M398 0V285Q398 324 394 353T377 402T345 432T291 442Q244 442 206 412T157 333V0H77V700H157V444H161Q187 475 223 493T314 512Q356 512 387 503T438 469T468 405T478 302V0H398Z"  />
<glyph unicode="i" horiz-adv-x="268" d="M77 652Q77 675 92 691T132 708Q156 708 173 692T190 652Q190 629 173 614T132 599Q108 599 93 614T77 652ZM94 500H174V0H94V500Z"  />
<glyph unicode="j" horiz-adv-x="267" d="M76 652Q76 675 91 691T131 708Q155 708 172 692T189 652Q189 629 172 614T131 599Q107 599 92 614T76 652ZM93 500H173V-27Q173 -120 141 -166T39 -212Q31 -212 24 -212T9 -210V-142Q37 -142 53 -134T79 -107T90 -62T93 3V500Z"  />
<glyph unicode="k" horiz-adv-x="479" d="M203 225H157V0H77V700H157V274L198 288L353 500H446L293 299L252 266L302 226L469 0H370L203 225Z"  />
<glyph unicode="l" horiz-adv-x="292" d="M166 123Q166 88 178 73T212 58Q225 58 240 60T274 69L283 6Q267 -2 239 -7T189 -12Q144 -12 115 13T86 100V700H166V123Z"  />
<glyph unicode="m" horiz-adv-x="812" d="M370 0V283Q370 323 367 352T353 402T325 432T276 442Q230 442 200 414T157 344V0H77V500H133L148 439H152Q179 471 214 491T307 512Q355 512 385 494T433 429Q456 468 496 490T588 512Q630 512 659 503T707 469T734 404T743 300V0H663V301Q663 337 660 363T646 407T617 433T568 442Q518 442 490 414T450 334V0H370Z"  />
<glyph unicode="n" horiz-adv-x="547" d="M398 0V285Q398 363 376 402T293 442Q240 442 206 414T157 342V0H77V500H133L148 439H152Q176 471 216 491T313 512Q354 512 385 503T436 469T467 405T478 302V0H398Z"  />
<glyph unicode="o" horiz-adv-x="536" d="M49 250Q49 377 105 444T268 512Q324 512 365 494T434 441T474 358T487 250Q487 123 431 56T268 -12Q212 -12 171 6T102 59T62 142T49 250ZM132 250Q132 212 139 177T163 116T205 74T268 58Q336 58 370 105T404 250Q404 289 397 323T373 384T331 426T268 442Q201 442 167 395T132 250Z"  />
<glyph unicode="p" horiz-adv-x="541" d="M77 500H132L147 440H151Q174 475 210 493T294 512Q394 512 443 453T492 260Q492 197 476 147T429 61T357 7T262 -12Q225 -12 204 -8T157 8V-200H77V500ZM279 442Q228 442 199 416T157 335V86Q175 72 198 65T259 58Q328 58 368 109T409 261Q409 302 402 335T380 392T340 429T279 442Z"  />
<glyph unicode="q" horiz-adv-x="537" d="M460 -200H380V50H376Q356 20 326 4T245 -12Q145 -12 97 51T49 248Q49 377 111 443T292 509Q345 509 391 499T460 478V-200ZM259 58Q310 58 339 84T380 164V421Q361 431 336 435T278 439Q209 439 171 393T132 249Q132 207 139 172T161 112T200 72T259 58Z"  />
<glyph unicode="r" horiz-adv-x="340" d="M313 423Q283 433 256 433Q213 433 188 410T157 350V0H77V500H133L148 439H152Q171 473 197 491T265 510Q294 510 330 500L313 423Z"  />
<glyph unicode="s" horiz-adv-x="421" d="M297 136Q297 166 279 183T235 212T177 234T119 260T74 303T56 373Q56 445 97 478T211 512Q265 512 301 503T365 480L346 415Q323 426 291 434T221 442Q177 442 157 427T136 375Q136 349 154 335T198 309T256 286T314 257T359 212T377 139Q377 107 367 79T334 31T280 0T203 -12Q146 -12 106 -1T39 25L63 92Q86 79 123 69T198 58Q241 58 269 75T297 136Z"  />
<glyph unicode="t" horiz-adv-x="339" d="M11 500H89V599L169 622V500H305V430H169V153Q169 101 182 80T226 58Q252 58 270 63T310 77L328 17Q301 4 269 -4T200 -12Q139 -12 114 22T89 138V430H11V500Z"  />
<glyph unicode="u" horiz-adv-x="539" d="M149 500V215Q149 176 153 147T169 98T199 68T247 58Q274 58 295 66T332 90T361 124T382 166V500H462V142Q462 106 464 68T473 0H418L398 79H393Q370 40 331 14T232 -12Q192 -12 162 -3T111 31T80 95T69 198V500H149Z"  />
<glyph unicode="v" horiz-adv-x="482" d="M221 207L249 112H250L275 209L387 500H473L260 -11H226L9 500H101L221 207Z"  />
<glyph unicode="w" horiz-adv-x="735" d="M401 500L516 208L541 112H543L562 210L651 500H727L559 -11H520L389 319L370 401H367L347 318L221 -11H182L8 500H95L194 209L211 112H212L236 211L343 500H401Z"  />
<glyph unicode="x" horiz-adv-x="515" d="M208 256L40 500H138L233 362L261 305L290 362L387 500H477L308 260L487 0H392L286 152L256 212L225 152L117 0H28L208 256Z"  />
<glyph unicode="y" horiz-adv-x="466" d="M224 176L252 80H257L279 177L376 500H457L309 51Q292 2 276 -44T239 -126T194 -183T136 -205Q100 -205 77 -195L91 -126Q104 -131 116 -131Q144 -131 170 -102T213 0L12 500H104L224 176Z"  />
<glyph unicode="z" horiz-adv-x="447" d="M42 70L273 388L315 430H42V500H398V430L165 109L124 70H398V0H42V70Z"  />
<glyph unicode="{" horiz-adv-x="346" d="M137 112Q137 163 116 181T57 200V270Q95 270 116 290T137 354V596Q137 643 160 672T232 701H317V631H267Q240 631 228 618T215 572V335Q215 291 194 268T145 240V234Q172 230 193 204T215 135V-101Q215 -132 227 -146T268 -160H317V-230H232Q187 -230 162 -204T137 -126V112Z"  />
<glyph unicode="|" horiz-adv-x="238" d="M85 700H153V-130H85V700Z"  />
<glyph unicode="}" horiz-adv-x="346" d="M235 359Q235 308 256 290T315 271V201Q277 201 256 181T235 117V-125Q235 -172 212 -201T140 -230H55V-160H105Q132 -160 144 -147T157 -101V136Q157 180 177 203T226 231V237Q199 241 178 267T157 336V572Q157 603 145 617T105 631H55V701H141Q185 701 210 675T235 597V359Z"  />
<glyph unicode="~" horiz-adv-x="505" d="M31 361Q74 394 109 407T173 420Q201 420 225 412T271 393T314 374T358 365Q377 365 397 373T440 401L474 340Q436 314 406 304T350 293Q323 293 301 301T258 320T217 339T172 348Q149 348 123 338T65 301L31 361Z"  />
<glyph unicode="&#xA0;" horiz-adv-x="267" />
<glyph unicode="&#xA1;" horiz-adv-x="304" d="M77 453Q77 480 92 495T134 511Q161 511 177 496T193 453Q193 427 177 411T134 395Q108 395 93 411T77 453ZM176 -200H93V147L110 323H159L176 147V-200Z"  />
<glyph unicode="&#xA2;" horiz-adv-x="545" d="M461 33Q437 16 407 6T341 -9V-100H270V-10Q220 -5 186 15T129 69T97 149T87 250Q87 365 134 431T270 509V600H341V511Q376 509 403 502T452 483L429 415Q409 425 385 432T334 441V58Q366 60 392 70T435 94L461 33ZM170 250Q170 217 175 187T194 131T228 87T280 62V439Q170 418 170 250Z"  />
<glyph unicode="&#xA3;" horiz-adv-x="545" d="M50 383H116Q104 410 96 440T88 513Q88 611 144 661T297 712Q358 712 403 703T477 680L451 609Q428 620 390 629T296 638Q236 638 204 606T171 518Q171 476 181 445T205 383H366V313H235Q243 290 248 265T253 210Q253 180 244 149T217 97L178 64V60L240 74H496V0H50V72Q82 72 104 83T141 113T163 155T170 203Q170 236 164 262T147 313H50V383Z"  />
<glyph unicode="&#xA4;" horiz-adv-x="545" d="M70 596L148 519L169 484Q211 517 272 517Q331 517 375 484L397 519L475 596L524 547L447 469L412 447Q444 404 444 345Q444 285 412 242L447 221L524 143L475 95L397 172L376 205Q333 174 272 174Q210 174 169 205L148 172L70 95L21 143L98 221L132 243Q101 285 101 345Q101 374 109 400T132 448L98 469L21 547L70 596ZM170 345Q170 300 198 270T272 240Q317 240 346 270T375 345Q375 390 346 420T272 451Q227 451 199 421T170 345Z"  />
<glyph unicode="&#xA5;" horiz-adv-x="545" d="M111 328H205L2 700H99L263 394L280 333H281L299 396L456 700H545L342 328H438V268H316V197H438V137H316V0H233V137H111V197H233V268H111V328Z"  />
<glyph unicode="&#xA6;" horiz-adv-x="238" d="M153 364H85V700H153V364ZM85 206H153V-130H85V206Z"  />
<glyph unicode="&#xA7;" horiz-adv-x="497" d="M57 353Q57 384 72 413T114 466L155 480Q129 496 112 520T94 586Q94 642 135 677T251 712Q305 712 342 703T407 681L388 614Q364 625 331 633T262 642Q217 642 196 626T174 583Q174 557 193 543T243 517T307 495T371 467T420 421T440 347Q440 316 425 287T384 235L339 221Q366 205 384 180T403 114Q403 83 391 60T358 20T307 -4T245 -12Q189 -12 153 -3T89 21L109 86Q132 75 164 67T235 58Q277 58 300 71T323 117Q323 143 304 158T254 184T190 206T126 234T77 280T57 353ZM360 345Q360 370 347 386T313 413T264 433T210 452Q181 439 159 415T137 355Q137 330 150 314T183 287T230 267T284 249Q298 255 311 265T336 287T353 314T360 345Z"  />
<glyph unicode="&#xA8;" horiz-adv-x="411" d="M252 653Q252 676 265 690T301 704Q324 704 337 690T351 653Q351 632 338 618T301 604Q279 604 266 618T252 653ZM60 653Q60 676 73 690T109 704Q131 704 144 690T158 653Q158 632 145 618T109 604Q87 604 74 618T60 653Z"  />
<glyph unicode="&#xA9;" horiz-adv-x="806" d="M519 127Q496 114 468 107T401 100Q320 100 278 151T235 290Q235 381 280 430T401 480Q419 480 433 478T460 473T485 464T512 453L486 392Q464 403 444 406T410 410Q368 410 342 385T315 290Q315 232 341 201T418 170Q467 170 498 187L519 127ZM121 290Q121 221 143 168T203 78T292 23T403 4Q462 4 513 23T603 78T663 167T685 290Q685 359 663 412T603 502T514 557T403 576Q344 576 293 557T203 502T143 413T121 290ZM51 290Q51 373 79 438T155 549T267 618T403 642Q475 642 539 618T651 549T727 439T755 290Q755 207 727 142T651 31T539 -38T403 -62Q323 -62 258 -38T147 31T76 141T51 290Z"  />
<glyph unicode="&#xAA;" horiz-adv-x="386" d="M68 677Q93 690 134 699T225 708Q287 708 310 682T333 607Q333 569 332 534T330 467Q330 443 331 421T338 380H283L270 426H266Q253 409 229 393T162 376Q110 376 79 401T48 471Q48 502 63 523T103 557T163 576T238 582Q245 582 251 582T265 581Q266 587 266 592T266 603Q266 630 254 641T208 652Q168 652 135 645T83 627L68 677ZM173 432Q194 432 209 437T236 450T254 468T265 487V529Q254 530 244 530T223 530Q202 530 183 528T150 520T127 504T118 476Q118 456 132 444T173 432Z"  />
<glyph unicode="&#xAB;" horiz-adv-x="478" d="M39 259L199 489L253 446L155 301L107 260L155 224L259 82L205 38L39 259ZM222 259L380 487L433 445L336 301L288 260L336 224L439 83L387 40L222 259Z"  />
<glyph unicode="&#xAC;" horiz-adv-x="505" d="M41 392H465V200H393V320H41V392Z"  />
<glyph unicode="&#xAD;" horiz-adv-x="360" d="M58 325H302V251H58V325Z"  />
<glyph unicode="&#xAE;" horiz-adv-x="700" d="M85 451Q85 515 106 564T163 647T248 698T350 716Q405 716 453 699T538 648T594 565T615 451Q615 387 594 338T537 255T452 204T350 186Q294 186 246 203T162 254T106 337T85 451ZM148 451Q148 399 164 361T207 297T272 258T350 245Q393 245 430 257T494 295T536 359T552 451Q552 503 536 541T493 605T429 644T350 657Q306 657 269 644T205 606T163 542T148 451ZM247 581Q263 586 292 588T347 591Q389 591 419 574T449 513Q449 481 429 464T378 445L406 431L480 322H419L347 426L299 441V322H247V581ZM336 546Q325 546 315 546T299 542V471H333Q362 471 378 480T394 511Q394 546 336 546Z"  />
<glyph unicode="&#xAF;" horiz-adv-x="416" d="M60 643H356V581H60V643Z"  />
<glyph unicode="&#xB0;" horiz-adv-x="425" d="M85 571Q85 602 96 628T126 672T171 701T226 712Q255 712 281 703T326 675T356 630T367 571Q367 538 356 512T326 468T281 440T226 430Q197 430 171 439T126 467T96 512T85 571ZM148 571Q148 533 171 512T226 490Q257 490 280 511T304 571Q304 609 281 630T226 652Q195 652 172 631T148 571Z"  />
<glyph unicode="&#xB1;" horiz-adv-x="505" d="M40 250H464V178H40V250ZM40 493H216V674H288V493H464V421H288V301H216V421H40V493Z"  />
<glyph unicode="&#xB2;" horiz-adv-x="394" d="M319 690Q319 659 309 630T281 573T239 518T188 462L142 430V428L199 443H339V380H48V413Q71 432 105 464T172 533T226 609T249 681Q249 712 229 727T180 743Q153 743 128 734T83 712L61 769Q87 787 121 797T192 807Q255 807 287 776T319 690Z"  />
<glyph unicode="&#xB3;" horiz-adv-x="394" d="M168 433Q216 433 242 452T268 508Q268 540 245 560T170 580H115V603L212 719L246 746L197 740H67V800H323V767L220 644L195 626V624L218 627Q274 626 306 594T338 508Q338 447 294 410T174 373Q138 373 112 379T66 392L81 452Q98 444 120 439T168 433Z"  />
<glyph unicode="&#xB4;" horiz-adv-x="268" d="M119 720H208V699L107 571H60L119 720Z"  />
<glyph unicode="&#xB5;" horiz-adv-x="552" d="M148 500V217Q148 138 172 98T258 58Q313 58 351 90T404 176V500H484V163Q484 122 486 81T499 0H444L416 74H412Q392 39 351 14T249 -12Q201 -12 176 2T132 38H127L148 -67V-200H68V500H148Z"  />
<glyph unicode="&#xB6;" horiz-adv-x="494" d="M185 310Q153 310 126 326T80 370T49 433T37 506Q37 543 48 578T82 640T136 683T208 700H253V-130H185V310ZM341 700H409V-130H341V700Z"  />
<glyph unicode="&#xB7;" horiz-adv-x="267" d="M76 296Q76 323 91 338T133 354Q160 354 176 339T192 296Q192 270 176 254T133 238Q107 238 92 254T76 296Z"  />
<glyph unicode="&#xB8;" horiz-adv-x="287" d="M172 0L148 -43Q190 -51 208 -69T227 -118Q227 -157 195 -182T105 -208Q94 -208 83 -207T60 -204L69 -165Q75 -166 80 -166T90 -166Q112 -166 124 -162T143 -153T151 -140T153 -127Q153 -99 67 -90L115 0H172Z"  />
<glyph unicode="&#xB9;" horiz-adv-x="394" d="M72 441H178V695L185 731L158 703L80 656L53 705L207 807H248V441H343V380H72V441Z"  />
<glyph unicode="&#xBA;" horiz-adv-x="398" d="M44 542Q44 587 56 619T88 672T137 702T199 712Q232 712 260 703T309 674T342 622T354 542Q354 495 342 463T310 410T261 381T199 372Q166 372 138 381T89 410T56 462T44 542ZM118 542Q118 482 139 456T199 430Q218 430 233 435T258 453T274 487T280 542Q280 575 275 596T259 630T233 648T199 654Q161 654 140 631T118 542Z"  />
<glyph unicode="&#xBB;" horiz-adv-x="478" d="M439 268L279 38L225 81L323 226L371 267L323 303L219 445L272 489L439 268ZM257 268L97 40L45 82L141 226L190 267L141 303L39 444L91 487L257 268Z"  />
<glyph unicode="&#xBC;" horiz-adv-x="837" d="M178 595L185 631L158 603L80 556L53 605L207 707H248V280H178V595ZM647 283L653 332H651L629 286L551 181L518 150L568 155H647V283ZM797 96H714V0H647V96H443V133L669 435H714V155H797V96ZM628 713L680 678L193 -12L141 24L628 713Z"  />
<glyph unicode="&#xBD;" horiz-adv-x="850" d="M178 595L185 631L158 603L80 556L53 605L207 707H248V280H178V595ZM790 310Q790 279 780 250T752 193T710 138T659 82L613 50V48L670 63H810V0H519V33Q542 52 576 84T643 153T697 229T720 301Q720 332 700 347T651 363Q624 363 599 354T554 332L532 389Q558 407 592 417T663 427Q726 427 758 396T790 310ZM628 713L680 678L193 -12L141 24L628 713Z"  />
<glyph unicode="&#xBE;" horiz-adv-x="876" d="M178 333Q226 333 252 352T278 408Q278 440 255 460T180 480H125V503L222 619L256 646L207 640H77V700H333V667L230 544L205 526V524L228 527Q284 526 316 494T348 408Q348 347 304 310T184 273Q148 273 122 279T76 292L91 352Q108 344 130 339T178 333ZM686 283L692 332H690L668 286L590 181L557 150L607 155H686V283ZM836 96H753V0H686V96H482V133L708 435H753V155H836V96ZM667 713L719 678L232 -12L180 24L667 713Z"  />
<glyph unicode="&#xBF;" horiz-adv-x="436" d="M191 454Q191 481 206 496T248 512Q275 512 291 497T307 454Q307 428 291 412T248 396Q222 396 207 412T191 454ZM286 323Q287 318 287 312T287 301Q287 259 275 227T244 169T204 119T164 73T133 23T120 -38Q120 -84 146 -113T235 -142Q271 -142 308 -130T372 -100L399 -162Q361 -185 319 -198T215 -212Q171 -212 138 -200T82 -165T48 -114T37 -49Q37 -4 50 29T84 90T128 142T172 192T206 250T220 323H286Z"  />
<glyph unicode="&#xC0;" horiz-adv-x="585" d="M367 752H293L135 849V870H249L367 752ZM187 266H393L315 479L290 585H289L264 477L187 266ZM418 194H160L90 0H8L273 711H311L577 0H490L418 194Z"  />
<glyph unicode="&#xC1;" horiz-adv-x="585" d="M331 870H445V849L282 752H213L331 870ZM187 266H393L315 479L290 585H289L264 477L187 266ZM418 194H160L90 0H8L273 711H311L577 0H490L418 194Z"  />
<glyph unicode="&#xC2;" horiz-adv-x="585" d="M265 870H325L452 768V747H371L311 796L294 831L275 797L211 747H132V769L265 870ZM187 266H393L315 479L290 585H289L264 477L187 266ZM418 194H160L90 0H8L273 711H311L577 0H490L418 194Z"  />
<glyph unicode="&#xC3;" horiz-adv-x="585" d="M135 785Q166 817 192 828T243 840Q262 840 280 835T314 824T347 812T378 807Q404 807 428 828L453 785Q426 760 402 751T357 741Q338 741 321 746T288 757T255 769T223 774Q207 774 192 768T159 744L135 785ZM187 266H393L315 479L290 585H289L264 477L187 266ZM418 194H160L90 0H8L273 711H311L577 0H490L418 194Z"  />
<glyph unicode="&#xC4;" horiz-adv-x="585" d="M336 794Q336 815 350 828T388 841Q412 841 427 828T442 794Q442 774 427 761T388 748Q365 748 351 761T336 794ZM144 794Q144 815 159 828T198 841Q221 841 235 828T250 794Q250 774 236 761T198 748Q174 748 159 761T144 794ZM187 266H393L315 479L290 585H289L264 477L187 266ZM418 194H160L90 0H8L273 711H311L577 0H490L418 194Z"  />
<glyph unicode="&#xC5;" horiz-adv-x="585" d="M188 768Q188 805 213 829T293 853Q343 853 371 832T399 768Q399 736 379 715T320 687L577 0H490L418 194H160L90 0H8L264 687Q226 693 207 714T188 768ZM187 266H393L315 479L290 585H289L264 477L187 266ZM249 768Q249 751 259 740T293 728Q315 728 326 739T338 768Q338 787 327 798T293 810Q271 810 260 799T249 768Z"  />
<glyph unicode="&#xC6;" horiz-adv-x="846" d="M391 600L357 497L224 268H395V600H391ZM395 198H181L69 0H-22L393 700H776V626H478V397H751V323H478V74H781V0H395V198Z"  />
<glyph unicode="&#xC7;" horiz-adv-x="571" d="M533 29Q507 9 469 0T386 -11L369 -43Q411 -51 429 -69T448 -118Q448 -157 416 -182T326 -208Q315 -208 304 -207T281 -204L290 -165Q296 -166 301 -166T311 -166Q333 -166 345 -162T364 -153T372 -140T374 -127Q374 -99 288 -90L330 -10Q272 -6 222 17T135 85T77 195T56 350Q56 448 82 516T152 628T250 692T360 712Q420 712 458 706T523 688L503 615Q455 638 366 638Q325 638 285 623T214 574T163 485T144 350Q144 278 162 224T211 134T285 80T378 62Q423 62 456 71T513 94L533 29Z"  />
<glyph unicode="&#xC8;" horiz-adv-x="536" d="M326 752H252L94 849V870H208L326 752ZM85 700H466V626H168V397H441V323H168V74H471V0H85V700Z"  />
<glyph unicode="&#xC9;" horiz-adv-x="536" d="M330 870H444V849L281 752H212L330 870ZM85 700H466V626H168V397H441V323H168V74H471V0H85V700Z"  />
<glyph unicode="&#xCA;" horiz-adv-x="536" d="M242 870H302L429 768V747H348L288 796L271 831L252 797L188 747H109V769L242 870ZM85 700H466V626H168V397H441V323H168V74H471V0H85V700Z"  />
<glyph unicode="&#xCB;" horiz-adv-x="536" d="M312 794Q312 815 326 828T364 841Q388 841 403 828T418 794Q418 774 403 761T364 748Q341 748 327 761T312 794ZM120 794Q120 815 135 828T174 841Q197 841 211 828T226 794Q226 774 212 761T174 748Q150 748 135 761T120 794ZM85 700H466V626H168V397H441V323H168V74H471V0H85V700Z"  />
<glyph unicode="&#xCC;" horiz-adv-x="291" d="M232 752H158L0 849V870H114L232 752ZM104 700H187V0H104V700Z"  />
<glyph unicode="&#xCD;" horiz-adv-x="291" d="M180 870H294V849L131 752H62L180 870ZM104 700H187V0H104V700Z"  />
<glyph unicode="&#xCE;" horiz-adv-x="291" d="M117 870H177L304 768V747H223L163 796L146 831L127 797L63 747H-16V769L117 870ZM104 700H187V0H104V700Z"  />
<glyph unicode="&#xCF;" horiz-adv-x="291" d="M189 794Q189 815 203 828T241 841Q265 841 280 828T295 794Q295 774 280 761T241 748Q218 748 204 761T189 794ZM-3 794Q-3 815 12 828T51 841Q74 841 88 828T103 794Q103 774 89 761T51 748Q27 748 12 761T-3 794ZM104 700H187V0H104V700Z"  />
<glyph unicode="&#xD0;" horiz-adv-x="658" d="M-1 392H89V700Q108 703 131 704T180 706T230 707T276 708Q360 708 421 682T523 610T582 498T602 355Q602 284 584 219T525 103T421 22T266 -9Q250 -9 225 -9T172 -7T122 -4T89 -1V332H-1V392ZM278 634Q265 634 250 634T219 633T192 631T172 629V392H319V332H172V69Q177 68 191 68T220 67T249 66T268 65Q338 65 385 89T461 153T502 246T514 355Q514 404 503 453T465 543T393 608T278 634Z"  />
<glyph unicode="&#xD1;" horiz-adv-x="673" d="M179 785Q210 817 236 828T287 840Q306 840 324 835T358 824T391 812T422 807Q448 807 472 828L497 785Q470 760 446 751T401 741Q382 741 365 746T332 757T299 769T267 774Q251 774 236 768T203 744L179 785ZM211 458L157 559H153L163 458V0H85V711H129L464 244L516 148H521L510 244V700H588V-11H544L211 458Z"  />
<glyph unicode="&#xD2;" horiz-adv-x="684" d="M410 752H336L178 849V870H292L410 752ZM144 350Q144 292 155 240T191 149T252 86T341 62Q434 62 487 132T540 350Q540 407 529 459T493 551T431 614T341 638Q249 638 197 568T144 350ZM56 350Q56 525 130 618T341 712Q415 712 469 686T558 613T611 499T628 350Q628 175 554 82T341 -12Q268 -12 215 14T126 87T73 201T56 350Z"  />
<glyph unicode="&#xD3;" horiz-adv-x="684" d="M415 870H529V849L366 752H297L415 870ZM144 350Q144 292 155 240T191 149T252 86T341 62Q434 62 487 132T540 350Q540 407 529 459T493 551T431 614T341 638Q249 638 197 568T144 350ZM56 350Q56 525 130 618T341 712Q415 712 469 686T558 613T611 499T628 350Q628 175 554 82T341 -12Q268 -12 215 14T126 87T73 201T56 350Z"  />
<glyph unicode="&#xD4;" horiz-adv-x="684" d="M312 870H372L499 768V747H418L358 796L341 831L322 797L258 747H179V769L312 870ZM144 350Q144 292 155 240T191 149T252 86T341 62Q434 62 487 132T540 350Q540 407 529 459T493 551T431 614T341 638Q249 638 197 568T144 350ZM56 350Q56 525 130 618T341 712Q415 712 469 686T558 613T611 499T628 350Q628 175 554 82T341 -12Q268 -12 215 14T126 87T73 201T56 350Z"  />
<glyph unicode="&#xD5;" horiz-adv-x="684" d="M182 785Q213 817 239 828T290 840Q309 840 327 835T361 824T394 812T425 807Q451 807 475 828L500 785Q473 760 449 751T404 741Q385 741 368 746T335 757T302 769T270 774Q254 774 239 768T206 744L182 785ZM144 350Q144 292 155 240T191 149T252 86T341 62Q434 62 487 132T540 350Q540 407 529 459T493 551T431 614T341 638Q249 638 197 568T144 350ZM56 350Q56 525 130 618T341 712Q415 712 469 686T558 613T611 499T628 350Q628 175 554 82T341 -12Q268 -12 215 14T126 87T73 201T56 350Z"  />
<glyph unicode="&#xD6;" horiz-adv-x="684" d="M382 794Q382 815 396 828T434 841Q458 841 473 828T488 794Q488 774 473 761T434 748Q411 748 397 761T382 794ZM190 794Q190 815 205 828T244 841Q267 841 281 828T296 794Q296 774 282 761T244 748Q220 748 205 761T190 794ZM144 350Q144 292 155 240T191 149T252 86T341 62Q434 62 487 132T540 350Q540 407 529 459T493 551T431 614T341 638Q249 638 197 568T144 350ZM56 350Q56 525 130 618T341 712Q415 712 469 686T558 613T611 499T628 350Q628 175 554 82T341 -12Q268 -12 215 14T126 87T73 201T56 350Z"  />
<glyph unicode="&#xD7;" horiz-adv-x="505" d="M127 517L253 390L380 517L431 464L305 338L431 211L380 159L253 287L126 159L74 210L202 339L76 464L127 517Z"  />
<glyph unicode="&#xD8;" horiz-adv-x="684" d="M122 91Q88 139 72 204T56 350Q56 525 130 618T341 712Q398 712 442 697T520 653L562 713L614 678L563 606Q596 558 612 494T628 350Q628 175 554 82T341 -12Q234 -12 166 44L127 -12L75 24L122 91ZM144 350Q144 299 152 254T179 171L469 582Q446 608 415 623T341 638Q249 638 197 568T144 350ZM540 350Q540 398 532 443T506 525L216 114Q239 89 270 76T341 62Q434 62 487 132T540 350Z"  />
<glyph unicode="&#xD9;" horiz-adv-x="652" d="M407 752H333L175 849V870H289L407 752ZM487 700H567V233Q567 170 551 124T504 49T430 5T335 -9Q211 -9 148 47T85 217V700H168V256Q168 203 178 167T210 108T262 75T336 65Q417 65 452 109T487 256V700Z"  />
<glyph unicode="&#xDA;" horiz-adv-x="652" d="M390 870H504V849L341 752H272L390 870ZM487 700H567V233Q567 170 551 124T504 49T430 5T335 -9Q211 -9 148 47T85 217V700H168V256Q168 203 178 167T210 108T262 75T336 65Q417 65 452 109T487 256V700Z"  />
<glyph unicode="&#xDB;" horiz-adv-x="652" d="M301 870H361L488 768V747H407L347 796L330 831L311 797L247 747H168V769L301 870ZM487 700H567V233Q567 170 551 124T504 49T430 5T335 -9Q211 -9 148 47T85 217V700H168V256Q168 203 178 167T210 108T262 75T336 65Q417 65 452 109T487 256V700Z"  />
<glyph unicode="&#xDC;" horiz-adv-x="652" d="M370 794Q370 815 384 828T422 841Q446 841 461 828T476 794Q476 774 461 761T422 748Q399 748 385 761T370 794ZM178 794Q178 815 193 828T232 841Q255 841 269 828T284 794Q284 774 270 761T232 748Q208 748 193 761T178 794ZM487 700H567V233Q567 170 551 124T504 49T430 5T335 -9Q211 -9 148 47T85 217V700H168V256Q168 203 178 167T210 108T262 75T336 65Q417 65 452 109T487 256V700Z"  />
<glyph unicode="&#xDD;" horiz-adv-x="558" d="M355 870H469V849L306 752H237L355 870ZM239 278L8 700H105L269 394L286 333H287L305 396L462 700H551L322 279V0H239V278Z"  />
<glyph unicode="&#xDE;" horiz-adv-x="559" d="M85 700H168V625Q210 628 254 628Q300 628 347 619T434 586T497 520T522 413Q522 349 499 305T438 234T351 194T250 181Q245 181 234 181T210 181T185 183T168 185V0H85V700ZM256 556Q230 556 206 555T168 550V260Q173 258 184 258T207 256T230 255T246 255Q280 255 313 261T374 285T417 334T434 413Q434 454 419 481T378 525T320 549T256 556Z"  />
<glyph unicode="&#xDF;" horiz-adv-x="592" d="M384 559Q384 576 375 590T350 615T317 630T282 636Q254 636 235 629T203 606T186 564T180 498V0H100V430H22V500H100V523Q100 620 147 663T279 706Q320 706 354 696T412 666T450 620T464 560Q464 522 445 499T404 458T362 423T343 381Q343 358 358 346T396 323T445 303T494 275T532 231T547 159Q547 127 535 97T501 42T444 3T367 -12Q344 -12 327 -11T295 -6T267 3T241 16L264 81Q276 75 285 70T304 62T328 58T360 56Q381 56 400 63T435 84T458 115T467 156Q467 186 452 203T414 233T365 254T316 278T278 315T263 376Q263 415 282 438T323 480T365 516T384 559Z"  />
<glyph unicode="&#xE0;" horiz-adv-x="496" d="M305 571H260L145 699V720H240L305 571ZM211 62Q239 62 261 69T299 88T325 114T341 141V224Q327 225 313 225T284 226Q253 226 224 223T172 210T136 184T122 142Q122 107 147 85T211 62ZM69 463Q107 486 157 497T263 508Q315 508 346 494T394 458T416 408T422 354Q422 294 419 237T416 129Q416 92 419 59T430 -2H371L350 68H345Q336 54 323 41T290 17T246 -1T189 -8Q157 -8 130 2T82 30T51 75T39 134Q39 178 57 207T107 254T185 279T286 287Q300 287 313 287T341 285Q344 315 344 339Q344 394 322 416T242 438Q225 438 206 436T166 429T127 418T94 404L69 463Z"  />
<glyph unicode="&#xE1;" horiz-adv-x="496" d="M238 720H327V699L226 571H179L238 720ZM211 62Q239 62 261 69T299 88T325 114T341 141V224Q327 225 313 225T284 226Q253 226 224 223T172 210T136 184T122 142Q122 107 147 85T211 62ZM69 463Q107 486 157 497T263 508Q315 508 346 494T394 458T416 408T422 354Q422 294 419 237T416 129Q416 92 419 59T430 -2H371L350 68H345Q336 54 323 41T290 17T246 -1T189 -8Q157 -8 130 2T82 30T51 75T39 134Q39 178 57 207T107 254T185 279T286 287Q300 287 313 287T341 285Q344 315 344 339Q344 394 322 416T242 438Q225 438 206 436T166 429T127 418T94 404L69 463Z"  />
<glyph unicode="&#xE2;" horiz-adv-x="496" d="M239 732H271L382 550H310L271 616L250 674L228 616L183 550H116L239 732ZM211 62Q239 62 261 69T299 88T325 114T341 141V224Q327 225 313 225T284 226Q253 226 224 223T172 210T136 184T122 142Q122 107 147 85T211 62ZM69 463Q107 486 157 497T263 508Q315 508 346 494T394 458T416 408T422 354Q422 294 419 237T416 129Q416 92 419 59T430 -2H371L350 68H345Q336 54 323 41T290 17T246 -1T189 -8Q157 -8 130 2T82 30T51 75T39 134Q39 178 57 207T107 254T185 279T286 287Q300 287 313 287T341 285Q344 315 344 339Q344 394 322 416T242 438Q225 438 206 436T166 429T127 418T94 404L69 463Z"  />
<glyph unicode="&#xE3;" horiz-adv-x="496" d="M109 656Q138 689 162 701T206 714Q223 714 237 708T265 694T291 680T318 674Q340 674 364 698L388 655Q362 626 341 616T301 605Q285 605 271 611T244 624T217 638T189 645Q176 645 163 638T132 614L109 656ZM211 62Q239 62 261 69T299 88T325 114T341 141V224Q327 225 313 225T284 226Q253 226 224 223T172 210T136 184T122 142Q122 107 147 85T211 62ZM69 463Q107 486 157 497T263 508Q315 508 346 494T394 458T416 408T422 354Q422 294 419 237T416 129Q416 92 419 59T430 -2H371L350 68H345Q336 54 323 41T290 17T246 -1T189 -8Q157 -8 130 2T82 30T51 75T39 134Q39 178 57 207T107 254T185 279T286 287Q300 287 313 287T341 285Q344 315 344 339Q344 394 322 416T242 438Q225 438 206 436T166 429T127 418T94 404L69 463Z"  />
<glyph unicode="&#xE4;" horiz-adv-x="496" d="M296 653Q296 676 309 690T345 704Q368 704 381 690T395 653Q395 632 382 618T345 604Q323 604 310 618T296 653ZM104 653Q104 676 117 690T153 704Q175 704 188 690T202 653Q202 632 189 618T153 604Q131 604 118 618T104 653ZM211 62Q239 62 261 69T299 88T325 114T341 141V224Q327 225 313 225T284 226Q253 226 224 223T172 210T136 184T122 142Q122 107 147 85T211 62ZM69 463Q107 486 157 497T263 508Q315 508 346 494T394 458T416 408T422 354Q422 294 419 237T416 129Q416 92 419 59T430 -2H371L350 68H345Q336 54 323 41T290 17T246 -1T189 -8Q157 -8 130 2T82 30T51 75T39 134Q39 178 57 207T107 254T185 279T286 287Q300 287 313 287T341 285Q344 315 344 339Q344 394 322 416T242 438Q225 438 206 436T166 429T127 418T94 404L69 463Z"  />
<glyph unicode="&#xE5;" horiz-adv-x="496" d="M69 463Q107 486 157 497T263 508Q315 508 346 494T394 458T416 408T422 354Q422 294 419 237T416 129Q416 92 419 59T430 -2H371L350 68H345Q336 54 323 41T290 17T246 -1T189 -8Q157 -8 130 2T82 30T51 75T39 134Q39 178 57 207T107 254T185 279T286 287Q300 287 313 287T341 285Q344 315 344 339Q344 394 322 416T242 438Q225 438 206 436T166 429T127 418T94 404L69 463ZM211 62Q239 62 261 69T299 88T325 114T341 141V224Q327 225 313 225T284 226Q253 226 224 223T172 210T136 184T122 142Q122 107 147 85T211 62ZM152 643Q152 685 178 709T249 734Q291 734 319 712T347 643Q347 604 319 579T249 553Q207 553 180 576T152 643ZM206 643Q206 623 219 612T249 601Q268 601 280 611T293 643Q293 665 280 675T249 686Q232 686 219 676T206 643Z"  />
<glyph unicode="&#xE6;" horiz-adv-x="796" d="M211 62Q239 62 261 69T299 88T325 114T341 141V224Q327 225 313 225T284 226Q253 226 224 223T172 210T136 184T122 142Q122 107 147 85T211 62ZM367 84Q354 66 337 50T299 21T250 0T189 -8Q157 -8 130 2T82 30T51 75T39 134Q39 178 57 207T107 254T185 279T286 287Q300 287 313 287T341 285Q342 300 343 313T344 339Q344 394 322 416T242 438Q225 438 206 436T166 429T127 418T94 404L69 463Q107 486 157 497T263 508Q368 508 399 443Q425 479 469 495T557 512Q591 512 625 505T686 476T730 415T747 313Q747 297 746 280T742 242H419Q419 154 455 106T580 58Q615 58 648 69T700 97L730 40Q700 16 655 2T558 -12Q497 -12 448 13T374 84H367ZM558 442Q499 442 463 411T421 305H669V317Q669 385 639 413T558 442Z"  />
<glyph unicode="&#xE7;" horiz-adv-x="451" d="M418 33Q369 -2 297 -10L279 -43Q321 -51 339 -69T358 -118Q358 -157 326 -182T236 -208Q225 -208 214 -207T191 -204L200 -165Q206 -166 211 -166T221 -166Q243 -166 255 -162T274 -153T282 -140T284 -127Q284 -99 198 -90L240 -11Q188 -8 152 12T93 66T60 146T49 250Q49 377 105 444T266 512Q314 512 347 505T408 483L385 414Q362 427 334 434T274 442Q132 442 132 250Q132 212 139 178T164 117T210 75T281 59Q317 59 345 69T392 94L418 33Z"  />
<glyph unicode="&#xE8;" horiz-adv-x="508" d="M330 571H285L170 699V720H265L330 571ZM270 442Q211 442 176 411T133 305H381Q381 381 352 411T270 442ZM442 40Q412 16 367 2T270 -12Q213 -12 171 6T102 59T62 142T49 250Q49 378 106 445T269 512Q303 512 337 505T398 476T442 417T459 315Q459 282 453 242H132Q132 198 141 164T169 107T218 71T293 58Q327 58 361 70T412 98L442 40Z"  />
<glyph unicode="&#xE9;" horiz-adv-x="508" d="M291 720H380V699L279 571H232L291 720ZM270 442Q211 442 176 411T133 305H381Q381 381 352 411T270 442ZM442 40Q412 16 367 2T270 -12Q213 -12 171 6T102 59T62 142T49 250Q49 378 106 445T269 512Q303 512 337 505T398 476T442 417T459 315Q459 282 453 242H132Q132 198 141 164T169 107T218 71T293 58Q327 58 361 70T412 98L442 40Z"  />
<glyph unicode="&#xEA;" horiz-adv-x="508" d="M245 732H277L388 550H316L277 616L256 674L234 616L189 550H122L245 732ZM270 442Q211 442 176 411T133 305H381Q381 381 352 411T270 442ZM442 40Q412 16 367 2T270 -12Q213 -12 171 6T102 59T62 142T49 250Q49 378 106 445T269 512Q303 512 337 505T398 476T442 417T459 315Q459 282 453 242H132Q132 198 141 164T169 107T218 71T293 58Q327 58 361 70T412 98L442 40Z"  />
<glyph unicode="&#xEB;" horiz-adv-x="508" d="M310 653Q310 676 323 690T359 704Q382 704 395 690T409 653Q409 632 396 618T359 604Q337 604 324 618T310 653ZM118 653Q118 676 131 690T167 704Q189 704 202 690T216 653Q216 632 203 618T167 604Q145 604 132 618T118 653ZM270 442Q211 442 176 411T133 305H381Q381 381 352 411T270 442ZM442 40Q412 16 367 2T270 -12Q213 -12 171 6T102 59T62 142T49 250Q49 378 106 445T269 512Q303 512 337 505T398 476T442 417T459 315Q459 282 453 242H132Q132 198 141 164T169 107T218 71T293 58Q327 58 361 70T412 98L442 40Z"  />
<glyph unicode="&#xEC;" horiz-adv-x="268" d="M171 571H126L11 699V720H106L171 571ZM94 500H174V0H94V500Z"  />
<glyph unicode="&#xED;" horiz-adv-x="268" d="M154 720H243V699L142 571H95L154 720ZM94 500H174V0H94V500Z"  />
<glyph unicode="&#xEE;" horiz-adv-x="268" d="M120 732H152L263 550H191L152 616L131 674L109 616L64 550H-3L120 732ZM94 500H174V0H94V500Z"  />
<glyph unicode="&#xEF;" horiz-adv-x="268" d="M178 653Q178 676 191 690T227 704Q250 704 263 690T277 653Q277 632 264 618T227 604Q205 604 192 618T178 653ZM-14 653Q-14 676 -1 690T35 704Q57 704 70 690T84 653Q84 632 71 618T35 604Q13 604 0 618T-14 653ZM94 500H174V0H94V500Z"  />
<glyph unicode="&#xF0;" horiz-adv-x="561" d="M220 596L277 627Q239 650 201 659L236 713Q254 706 282 694T340 661L408 698L434 653L384 626Q408 603 430 573T469 502T496 410T506 295Q506 214 488 156T440 61T369 6T282 -12Q221 -12 178 9T108 66T69 149T56 251Q56 303 70 350T113 432T183 489T280 510Q325 510 359 496T407 464Q396 501 374 534T323 593L247 552L220 596ZM139 250Q139 152 180 105T286 58Q316 58 341 71T385 112T415 184T426 290Q426 300 426 312T425 337T423 361T419 381Q411 395 397 406T365 424T327 436T288 440Q249 440 221 425T174 385T148 325T139 250Z"  />
<glyph unicode="&#xF1;" horiz-adv-x="547" d="M134 656Q163 689 187 701T231 714Q248 714 262 708T290 694T316 680T343 674Q365 674 389 698L413 655Q387 626 366 616T326 605Q310 605 296 611T269 624T242 638T214 645Q201 645 188 638T157 614L134 656ZM398 0V285Q398 363 376 402T293 442Q240 442 206 414T157 342V0H77V500H133L148 439H152Q176 471 216 491T313 512Q354 512 385 503T436 469T467 405T478 302V0H398Z"  />
<glyph unicode="&#xF2;" horiz-adv-x="536" d="M317 571H272L157 699V720H252L317 571ZM132 250Q132 212 139 177T163 116T205 74T268 58Q336 58 370 105T404 250Q404 289 397 323T373 384T331 426T268 442Q201 442 167 395T132 250ZM49 250Q49 377 105 444T268 512Q324 512 365 494T434 441T474 358T487 250Q487 123 431 56T268 -12Q212 -12 171 6T102 59T62 142T49 250Z"  />
<glyph unicode="&#xF3;" horiz-adv-x="536" d="M286 720H375V699L274 571H227L286 720ZM132 250Q132 212 139 177T163 116T205 74T268 58Q336 58 370 105T404 250Q404 289 397 323T373 384T331 426T268 442Q201 442 167 395T132 250ZM49 250Q49 377 105 444T268 512Q324 512 365 494T434 441T474 358T487 250Q487 123 431 56T268 -12Q212 -12 171 6T102 59T62 142T49 250Z"  />
<glyph unicode="&#xF4;" horiz-adv-x="536" d="M258 732H290L401 550H329L290 616L269 674L247 616L202 550H135L258 732ZM132 250Q132 212 139 177T163 116T205 74T268 58Q336 58 370 105T404 250Q404 289 397 323T373 384T331 426T268 442Q201 442 167 395T132 250ZM49 250Q49 377 105 444T268 512Q324 512 365 494T434 441T474 358T487 250Q487 123 431 56T268 -12Q212 -12 171 6T102 59T62 142T49 250Z"  />
<glyph unicode="&#xF5;" horiz-adv-x="536" d="M129 656Q158 689 182 701T226 714Q243 714 257 708T285 694T311 680T338 674Q360 674 384 698L408 655Q382 626 361 616T321 605Q305 605 291 611T264 624T237 638T209 645Q196 645 183 638T152 614L129 656ZM132 250Q132 212 139 177T163 116T205 74T268 58Q336 58 370 105T404 250Q404 289 397 323T373 384T331 426T268 442Q201 442 167 395T132 250ZM49 250Q49 377 105 444T268 512Q324 512 365 494T434 441T474 358T487 250Q487 123 431 56T268 -12Q212 -12 171 6T102 59T62 142T49 250Z"  />
<glyph unicode="&#xF6;" horiz-adv-x="536" d="M312 653Q312 676 325 690T361 704Q384 704 397 690T411 653Q411 632 398 618T361 604Q339 604 326 618T312 653ZM120 653Q120 676 133 690T169 704Q191 704 204 690T218 653Q218 632 205 618T169 604Q147 604 134 618T120 653ZM132 250Q132 212 139 177T163 116T205 74T268 58Q336 58 370 105T404 250Q404 289 397 323T373 384T331 426T268 442Q201 442 167 395T132 250ZM49 250Q49 377 105 444T268 512Q324 512 365 494T434 441T474 358T487 250Q487 123 431 56T268 -12Q212 -12 171 6T102 59T62 142T49 250Z"  />
<glyph unicode="&#xF7;" horiz-adv-x="505" d="M195 150Q195 177 210 192T252 208Q279 208 295 193T311 150Q311 124 295 108T252 92Q226 92 211 108T195 150ZM195 525Q195 552 210 567T252 583Q279 583 295 568T311 525Q311 499 295 483T252 467Q226 467 211 483T195 525ZM40 374H464V302H40V374Z"  />
<glyph unicode="&#xF8;" horiz-adv-x="536" d="M49 250Q49 377 105 444T268 512Q341 512 390 480L416 515L466 478L437 436Q463 402 475 355T487 250Q487 123 431 56T268 -12Q190 -12 140 23L113 -14L61 24L94 70Q71 104 60 149T49 250ZM404 250Q404 282 399 311T383 365L184 88Q200 74 220 66T268 58Q336 58 370 105T404 250ZM132 250Q132 220 136 192T150 141L347 415Q315 442 268 442Q201 442 167 395T132 250Z"  />
<glyph unicode="&#xF9;" horiz-adv-x="539" d="M308 571H263L148 699V720H243L308 571ZM149 500V215Q149 176 153 147T169 98T199 68T247 58Q274 58 295 66T332 90T361 124T382 166V500H462V142Q462 106 464 68T473 0H418L398 79H393Q370 40 331 14T232 -12Q192 -12 162 -3T111 31T80 95T69 198V500H149Z"  />
<glyph unicode="&#xFA;" horiz-adv-x="539" d="M285 720H374V699L273 571H226L285 720ZM149 500V215Q149 176 153 147T169 98T199 68T247 58Q274 58 295 66T332 90T361 124T382 166V500H462V142Q462 106 464 68T473 0H418L398 79H393Q370 40 331 14T232 -12Q192 -12 162 -3T111 31T80 95T69 198V500H149Z"  />
<glyph unicode="&#xFB;" horiz-adv-x="539" d="M260 732H292L403 550H331L292 616L271 674L249 616L204 550H137L260 732ZM149 500V215Q149 176 153 147T169 98T199 68T247 58Q274 58 295 66T332 90T361 124T382 166V500H462V142Q462 106 464 68T473 0H418L398 79H393Q370 40 331 14T232 -12Q192 -12 162 -3T111 31T80 95T69 198V500H149Z"  />
<glyph unicode="&#xFC;" horiz-adv-x="539" d="M316 653Q316 676 329 690T365 704Q388 704 401 690T415 653Q415 632 402 618T365 604Q343 604 330 618T316 653ZM124 653Q124 676 137 690T173 704Q195 704 208 690T222 653Q222 632 209 618T173 604Q151 604 138 618T124 653ZM149 500V215Q149 176 153 147T169 98T199 68T247 58Q274 58 295 66T332 90T361 124T382 166V500H462V142Q462 106 464 68T473 0H418L398 79H393Q370 40 331 14T232 -12Q192 -12 162 -3T111 31T80 95T69 198V500H149Z"  />
<glyph unicode="&#xFD;" horiz-adv-x="466" d="M277 720H366V699L265 571H218L277 720ZM224 176L252 80H257L279 177L376 500H457L309 51Q292 2 276 -44T239 -126T194 -183T136 -205Q100 -205 77 -195L91 -126Q104 -131 116 -131Q144 -131 170 -102T213 0L12 500H104L224 176Z"  />
<glyph unicode="&#xFE;" horiz-adv-x="541" d="M77 700H157V450H161Q181 479 214 495T294 512Q394 512 443 453T492 260Q492 197 476 147T429 61T357 7T262 -12Q225 -12 204 -8T157 8V-200H77V700ZM279 442Q181 442 157 335V86Q175 72 198 65T259 58Q328 58 368 109T409 261Q409 302 402 335T380 392T340 429T279 442Z"  />
<glyph unicode="&#xFF;" horiz-adv-x="466" d="M280 653Q280 676 293 690T329 704Q352 704 365 690T379 653Q379 632 366 618T329 604Q307 604 294 618T280 653ZM88 653Q88 676 101 690T137 704Q159 704 172 690T186 653Q186 632 173 618T137 604Q115 604 102 618T88 653ZM224 176L252 80H257L279 177L376 500H457L309 51Q292 2 276 -44T239 -126T194 -183T136 -205Q100 -205 77 -195L91 -126Q104 -131 116 -131Q144 -131 170 -102T213 0L12 500H104L224 176Z"  />
<glyph unicode="&#x152;" horiz-adv-x="932" d="M481 618Q453 629 416 633T341 638Q249 638 197 568T144 350Q144 292 155 240T192 149T256 86T349 62Q378 62 408 64T481 79V618ZM481 0Q456 -5 421 -8T341 -12Q268 -12 215 14T126 87T73 201T56 350Q56 525 130 618T341 712Q388 712 418 709T481 700H862V626H564V397H837V323H564V74H867V0H481Z"  />
<glyph unicode="&#x153;" horiz-adv-x="858" d="M132 246Q132 208 139 173T163 112T205 69T268 53Q403 53 403 246Q403 285 396 319T373 380T331 422T268 438Q201 438 167 391T132 246ZM442 77Q415 32 372 8T268 -16Q212 -16 171 2T102 55T62 138T49 246Q49 373 105 440T268 508Q331 508 374 482T444 416Q470 458 514 483T619 508Q653 508 687 501T748 472T792 413T809 311Q809 294 808 276T804 238H481Q481 194 490 160T518 103T568 67T643 54Q678 54 711 65T762 93L792 36Q762 12 717 -2T620 -16Q558 -16 513 9T442 77ZM620 438Q562 438 526 407T483 301H731V310Q731 379 701 408T620 438Z"  />
<glyph unicode="&#x160;" horiz-adv-x="531" d="M322 746H264L137 849V870H219L278 820L295 786L314 819L377 870H455V848L322 746ZM401 178Q401 220 376 246T314 293T232 332T151 375T88 438T63 534Q63 616 120 664T282 712Q343 712 393 703T471 680L446 607Q423 618 379 628T278 638Q212 638 179 609T146 539Q146 500 171 474T233 428T315 387T396 341T459 277T484 185Q484 140 468 104T421 42T346 2T246 -12Q171 -12 122 -1T46 25L74 100Q97 87 142 75T243 62Q276 62 305 68T355 89T388 126T401 178Z"  />
<glyph unicode="&#x161;" horiz-adv-x="421" d="M225 550H188L73 732H151L190 666L211 608L233 666L278 732H348L225 550ZM297 136Q297 166 279 183T235 212T177 234T119 260T74 303T56 373Q56 445 97 478T211 512Q265 512 301 503T365 480L346 415Q323 426 291 434T221 442Q177 442 157 427T136 375Q136 349 154 335T198 309T256 286T314 257T359 212T377 139Q377 107 367 79T334 31T280 0T203 -12Q146 -12 106 -1T39 25L63 92Q86 79 123 69T198 58Q241 58 269 75T297 136Z"  />
<glyph unicode="&#x178;" horiz-adv-x="558" d="M325 794Q325 815 339 828T377 841Q401 841 416 828T431 794Q431 774 416 761T377 748Q354 748 340 761T325 794ZM133 794Q133 815 148 828T187 841Q210 841 224 828T239 794Q239 774 225 761T187 748Q163 748 148 761T133 794ZM239 278L8 700H105L269 394L286 333H287L305 396L462 700H551L322 279V0H239V278Z"  />
<glyph unicode="&#x17D;" horiz-adv-x="545" d="M286 746H228L101 849V870H183L242 820L259 786L278 819L341 870H419V848L286 746ZM38 75L391 586L433 626H38V700H508V625L153 111L111 74H508V0H38V75Z"  />
<glyph unicode="&#x17E;" horiz-adv-x="447" d="M235 550H198L83 732H161L200 666L221 608L243 666L288 732H358L235 550ZM42 70L273 388L315 430H42V500H398V430L165 109L124 70H398V0H42V70Z"  />
<glyph unicode="&#x192;" horiz-adv-x="545" d="M316 430L237 -34Q231 -71 220 -102T191 -157T145 -194T81 -208Q52 -208 21 -201T-34 -184L-13 -119Q10 -129 30 -133T75 -138Q113 -138 132 -105T165 8L233 430H148V500H244L255 567Q267 641 298 676T402 712Q435 712 466 705T523 687L500 623Q455 642 408 642Q389 642 377 637T357 619T344 588T334 541L327 500H447V430H316Z"  />
<glyph unicode="&#x2C6;" horiz-adv-x="386" d="M183 732H215L326 550H254L215 616L194 674L172 616L127 550H60L183 732Z"  />
<glyph unicode="&#x2DC;" horiz-adv-x="399" d="M60 656Q89 689 113 701T157 714Q174 714 188 708T216 694T242 680T269 674Q291 674 315 698L339 655Q313 626 292 616T252 605Q236 605 222 611T195 624T168 638T140 645Q127 645 114 638T83 614L60 656Z"  />
<glyph unicode="&#x3BC;" horiz-adv-x="552" d="M148 500V217Q148 138 172 98T258 58Q313 58 351 90T404 176V500H484V163Q484 122 486 81T499 0H444L416 74H412Q392 39 351 14T249 -12Q201 -12 176 2T132 38H127L148 -67V-200H68V500H148Z"  />
<glyph unicode="&#x2013;" horiz-adv-x="660" d="M118 325H542V251H118V325Z"  />
<glyph unicode="&#x2014;" horiz-adv-x="820" d="M118 325H702V251H118V325Z"  />
<glyph unicode="&#x2018;" horiz-adv-x="194" d="M155 620Q155 597 140 584T102 570Q75 570 58 588T40 641Q40 674 49 697T72 737T100 764T126 778L151 743Q129 732 116 714T102 667Q106 668 113 668Q133 668 144 654T155 620Z"  />
<glyph unicode="&#x2019;" horiz-adv-x="194" d="M40 659Q40 682 54 695T92 708Q120 708 137 691T155 638Q155 605 146 581T123 541T94 514T68 500L43 534Q66 546 79 564T92 611Q88 610 81 610Q62 610 51 623T40 659Z"  />
<glyph unicode="&#x201A;" horiz-adv-x="194" d="M40 49Q40 72 54 85T92 98Q120 98 137 81T155 28Q155 -5 146 -29T123 -69T94 -96T68 -110L43 -76Q66 -64 79 -46T92 1Q88 0 81 0Q62 0 51 13T40 49Z"  />
<glyph unicode="&#x201C;" horiz-adv-x="340" d="M155 620Q155 597 140 584T102 570Q75 570 58 588T40 641Q40 674 49 697T72 737T100 764T126 778L151 743Q129 732 116 714T102 667Q106 668 113 668Q133 668 144 654T155 620ZM301 620Q301 597 286 584T248 570Q221 570 204 588T186 641Q186 674 195 697T218 737T246 764T272 778L297 743Q275 732 262 714T248 667Q252 668 259 668Q279 668 290 654T301 620Z"  />
<glyph unicode="&#x201D;" horiz-adv-x="340" d="M40 659Q40 682 54 695T92 708Q120 708 137 691T155 638Q155 605 146 581T123 541T94 514T68 500L43 534Q66 546 79 564T92 611Q88 610 81 610Q62 610 51 623T40 659ZM186 659Q186 682 200 695T238 708Q266 708 283 691T301 638Q301 605 292 581T269 541T240 514T214 500L189 534Q212 546 225 564T238 611Q234 610 227 610Q208 610 197 623T186 659Z"  />
<glyph unicode="&#x201E;" horiz-adv-x="340" d="M40 49Q40 72 54 85T92 98Q120 98 137 81T155 28Q155 -5 146 -29T123 -69T94 -96T68 -110L43 -76Q66 -64 79 -46T92 1Q88 0 81 0Q62 0 51 13T40 49ZM186 49Q186 72 200 85T238 98Q266 98 283 81T301 28Q301 -5 292 -29T269 -69T240 -96T214 -110L189 -76Q212 -64 225 -46T238 1Q234 0 227 0Q208 0 197 13T186 49Z"  />
<glyph unicode="&#x2020;" horiz-adv-x="486" d="M40 502H171L214 491L203 538V700H283V538L272 491L315 502H446V430H313L272 441L283 399V0L268 -200H218L203 1V399L214 441L171 430H40V502Z"  />
<glyph unicode="&#x2021;" horiz-adv-x="486" d="M203 400L214 441L171 430H40V502H171L214 491L203 537V700H283V537L272 491L315 502H446V430H313L272 441L283 400V276L272 235L313 246H446V174H315L272 185L283 139V0L267 -200H219L203 1V139L214 185L171 174H40V246H171L214 235L203 276V400Z"  />
<glyph unicode="&#x2022;" horiz-adv-x="452" d="M87 311Q87 342 98 367T127 411T171 440T226 450Q255 450 280 441T324 413T354 370T365 311Q365 278 354 253T325 209T281 182T226 172Q197 172 172 181T128 209T98 252T87 311Z"  />
<glyph unicode="&#x2026;" horiz-adv-x="759" d="M71 46Q71 73 86 88T128 104Q155 104 171 89T187 46Q187 20 171 4T128 -12Q102 -12 87 4T71 46ZM325 46Q325 73 340 88T382 104Q409 104 425 89T441 46Q441 20 425 4T382 -12Q356 -12 341 4T325 46ZM579 46Q579 73 594 88T636 104Q663 104 679 89T695 46Q695 20 679 4T636 -12Q610 -12 595 4T579 46Z"  />
<glyph unicode="&#x2030;" horiz-adv-x="1147" d="M637 713L686 675L173 -12L123 27L637 713ZM857 170Q857 110 878 84T938 58Q957 58 972 63T997 81T1013 115T1019 170Q1019 203 1014 224T998 258T972 276T938 282Q900 282 879 259T857 170ZM783 170Q783 215 795 247T827 300T876 330T938 340Q971 340 999 331T1048 302T1081 250T1093 170Q1093 123 1081 91T1049 38T1000 9T938 0Q905 0 877 9T828 38T795 90T783 170ZM500 170Q500 110 521 84T581 58Q600 58 615 63T640 81T656 115T662 170Q662 203 657 224T641 258T615 276T581 282Q543 282 522 259T500 170ZM426 170Q426 215 438 247T470 300T519 330T581 340Q614 340 642 331T691 302T724 250T736 170Q736 123 724 91T692 38T643 9T581 0Q548 0 520 9T471 38T438 90T426 170ZM144 542Q144 482 165 456T225 430Q244 430 259 435T284 453T300 487T306 542Q306 575 301 596T285 630T259 648T225 654Q187 654 166 631T144 542ZM70 542Q70 587 82 619T114 672T163 702T225 712Q258 712 286 703T335 674T368 622T380 542Q380 495 368 463T336 410T287 381T225 372Q192 372 164 381T115 410T82 462T70 542Z"  />
<glyph unicode="&#x2039;" horiz-adv-x="297" d="M39 259L199 489L252 446L155 301L107 260L155 224L258 82L205 38L39 259Z"  />
<glyph unicode="&#x203A;" horiz-adv-x="297" d="M258 268L98 38L45 81L142 226L190 267L142 303L39 445L92 489L258 268Z"  />
<glyph unicode="&#x20AC;" horiz-adv-x="545" d="M28 454H91Q103 521 128 570T190 650T272 697T368 712Q419 712 456 706T520 688L499 615Q476 626 445 632T370 638Q337 638 306 628T250 596T205 538T175 454H457L440 388H166Q165 377 165 369T165 350Q165 340 165 334T166 318H420L403 252H173Q191 158 244 110T383 62Q422 62 454 71T510 94L530 29Q500 6 456 -3T366 -12Q252 -12 181 53T89 252H10L28 318H83Q82 327 82 333T82 350Q82 361 82 369T83 388H10L28 454Z"  />
<glyph unicode="&#x2122;" horiz-adv-x="885" d="M770 507L780 610H776L737 525L650 385H617L528 524L492 610H488L501 508V340H428V700H506L611 532L639 474H640L670 534L767 700H846V340H770V507ZM388 632H252V340H174V632H38V700H388V632Z"  />


</font>
</defs>
</svg>
